
<?xml version="1.0" standalone="no"?>
<!DOCTYPE svg PUBLIC "-//W3C//DTD SVG 1.1//EN" "http://www.w3.org/Graphics/SVG/1.1/DTD/svg11.dtd">
<svg xmlns="http://www.w3.org/2000/svg">
<metadata>Copyright (C) 2024 by original authors @ fontello.com</metadata>
<defs>
<font id="mint_icons" horiz-adv-x="1000" >
<font-face font-family="mint_icons" font-weight="400" font-stretch="normal" units-per-em="1000" ascent="850" descent="-150" />
<missing-glyph horiz-adv-x="1000" />
<glyph glyph-name="mds_ic_account_circle_outline" unicode="&#xe800;" d="M244 138c35 27 75 48 119 64 43 15 89 23 137 23 48 0 94-8 138-23 43-16 83-37 118-64 25 28 44 60 57 96 14 37 20 75 20 116 0 92-32 171-97 236-65 65-144 97-236 97-92 0-171-32-236-97-65-65-97-144-97-236 0-41 6-79 20-116 14-36 32-68 57-96z m256 170c-41 0-75 14-104 43-28 28-42 62-42 103 0 41 14 76 42 104 29 28 63 42 104 42 41 0 76-14 104-42 28-28 42-63 42-104 0-41-14-75-42-103-28-29-63-43-104-43z m0-375c-58 0-112 11-162 33-51 22-95 52-133 89-37 38-67 82-89 133-22 50-33 104-33 162 0 58 11 112 33 163 22 50 52 94 89 132 38 37 82 67 133 89 50 22 104 33 162 33 58 0 112-11 163-33 50-22 94-52 132-89 37-38 67-82 89-132 22-51 33-105 33-163 0-58-11-112-33-162-22-51-52-95-89-133-38-37-82-67-132-89-51-22-105-33-163-33z m0 84c37 0 72 5 104 16 33 11 63 26 90 46-27 20-57 36-90 47-32 10-67 16-104 16-37 0-71-6-104-16-33-11-63-27-90-47 27-20 57-35 90-46 33-11 67-16 104-16z m0 375c18 0 33 6 45 17 12 12 18 27 18 45 0 18-6 33-18 45-12 12-27 18-45 18-18 0-33-6-45-18-12-12-17-27-17-45 0-18 5-33 17-45 12-11 27-17 45-17z" horiz-adv-x="1000" />

<glyph glyph-name="mds_ic_add_circle" unicode="&#xe801;" d="M458 308v-125c0-11 4-21 12-29 8-8 18-12 30-12 12 0 22 4 30 12 8 8 12 18 12 29v125h125c12 0 21 4 29 12 8 8 12 18 12 30 0 12-4 22-12 30-8 8-17 12-29 12h-125v125c0 12-4 21-12 29-8 8-18 12-30 12-12 0-22-4-30-12-8-8-12-17-12-29v-125h-125c-11 0-21-4-29-12-8-8-12-18-12-30 0-12 4-22 12-30 8-8 18-12 29-12h125z m42-375c-58 0-112 11-162 33-51 22-95 52-133 89-37 38-67 82-89 133-22 50-33 104-33 162 0 58 11 112 33 163 22 50 52 94 89 132 38 37 82 67 133 89 50 22 104 33 162 33 58 0 112-11 163-33 50-22 94-52 132-89 37-38 67-82 89-132 22-51 33-105 33-163 0-58-11-112-33-162-22-51-52-95-89-133-38-37-82-67-132-89-51-22-105-33-163-33z" horiz-adv-x="1000" />

<glyph glyph-name="mds_ic_add_circle_outline" unicode="&#xe802;" d="M458 308v-125c0-11 4-21 12-29 8-8 18-12 30-12 12 0 22 4 30 12 8 8 12 18 12 29v125h125c12 0 21 4 29 12 8 8 12 18 12 30 0 12-4 22-12 30-8 8-17 12-29 12h-125v125c0 12-4 21-12 29-8 8-18 12-30 12-12 0-22-4-30-12-8-8-12-17-12-29v-125h-125c-11 0-21-4-29-12-8-8-12-18-12-30 0-12 4-22 12-30 8-8 18-12 29-12h125z m42-375c-58 0-112 11-162 33-51 22-95 52-133 89-37 38-67 82-89 133-22 50-33 104-33 162 0 58 11 112 33 163 22 50 52 94 89 132 38 37 82 67 133 89 50 22 104 33 162 33 58 0 112-11 163-33 50-22 94-52 132-89 37-38 67-82 89-132 22-51 33-105 33-163 0-58-11-112-33-162-22-51-52-95-89-133-38-37-82-67-132-89-51-22-105-33-163-33z m0 84c93 0 172 32 237 97 64 64 96 143 96 236 0 93-32 172-96 237-65 64-144 96-237 96-93 0-172-32-236-96-65-65-97-144-97-237 0-93 32-172 97-236 64-65 143-97 236-97z" horiz-adv-x="1000" />

<glyph glyph-name="mds_ic_add_plus" unicode="&#xe803;" d="M458 308h-208c-12 0-22 4-30 12-8 8-12 18-12 30 0 12 4 22 12 30 8 8 18 12 30 12h208v208c0 12 4 22 12 30 8 8 18 12 30 12 12 0 22-4 30-12 8-8 12-18 12-30v-208h208c12 0 22-4 30-12 8-8 12-18 12-30 0-12-4-22-12-30-8-8-18-12-30-12h-208v-208c0-12-4-22-12-30-8-8-18-12-30-12-12 0-22 4-30 12-8 8-12 18-12 30v208z" horiz-adv-x="1000" />

<glyph glyph-name="mds_ic_add_plus_extra" unicode="&#xe804;" d="M458 308h-208c-12 0-22 4-30 12-8 8-12 18-12 30 0 12 4 22 12 30 8 8 18 12 30 12h208v208c0 12 4 22 12 30 8 8 18 12 30 12 12 0 22-4 30-12 8-8 12-18 12-30v-208h208c12 0 22-4 30-12 8-8 12-18 12-30 0-12-4-22-12-30-8-8-18-12-30-12h-208v-208c0-12-4-22-12-30-8-8-18-12-30-12-12 0-22 4-30 12-8 8-12 18-12 30v208z" horiz-adv-x="1000" />

<glyph glyph-name="mds_ic_alarm_on" unicode="&#xe805;" d="M456 279l-59 60c-8 8-18 12-29 12-11 0-21-4-29-12-9-9-13-19-13-30 0-12 4-21 13-30l88-89c8-9 18-13 29-13 11 0 21 4 29 13l178 177c8 8 12 18 12 29 0 12-4 22-12 30-9 8-19 13-30 13-12 0-21-5-30-13l-147-147z m44-346c-52 0-101 10-146 30-46 20-85 47-119 80-34 34-60 74-80 119-20 46-30 94-30 146 0 52 10 101 30 147 20 45 46 85 80 118 34 34 73 61 119 81 45 19 94 29 146 29 52 0 101-10 146-29 46-20 85-47 119-81 34-33 61-73 80-118 20-46 30-95 30-147 0-52-10-100-30-146-19-45-46-85-80-119-34-33-73-60-119-80-45-20-94-30-146-30z m-415 613c-7 8-11 17-11 29 0 12 4 22 11 29l119 119c8 8 18 11 29 11 12 0 22-3 30-11 7-8 11-17 11-29 0-12-4-22-11-29l-119-119c-8-8-18-12-29-12-12 0-22 4-30 12z m830 0c-8-8-18-12-30-12-11 0-21 4-29 12l-118 119c-8 7-12 17-12 29 0 12 4 21 12 29 7 8 17 11 29 11 12 0 21-3 29-11l119-119c7-7 11-17 11-29 0-12-4-21-11-29z" horiz-adv-x="1000" />

<glyph glyph-name="mds_ic_alarm_outline" unicode="&#xe806;" d="M542 325v150c0 12-4 22-12 30-8 8-18 12-30 12-12 0-22-4-30-12-8-8-12-18-12-30v-166c0-5 1-11 4-16 2-5 5-10 9-14l117-116c7-8 17-12 29-12 12 0 21 4 29 12 8 7 11 17 11 29 0 12-3 21-11 29l-104 104z m-42-392c-52 0-101 10-146 30-46 20-85 47-119 80-34 34-60 74-80 119-20 46-30 94-30 146 0 52 10 101 30 147 20 45 46 85 80 118 34 34 73 61 119 81 45 19 94 29 146 29 52 0 101-10 146-29 46-20 85-47 119-81 34-33 61-73 80-118 20-46 30-95 30-147 0-52-10-100-30-146-19-45-46-85-80-119-34-33-73-60-119-80-45-20-94-30-146-30z m-415 613c-7 8-11 17-11 29 0 12 4 22 11 29l119 119c8 8 18 11 29 11 12 0 22-3 30-11 7-8 11-17 11-29 0-12-4-22-11-29l-119-119c-8-8-18-12-29-12-12 0-22 4-30 12z m830 0c-8-8-18-12-30-12-11 0-21 4-29 12l-118 119c-8 7-12 17-12 29 0 12 4 21 12 29 7 8 17 11 29 11 12 0 21-3 29-11l119-119c7-7 11-17 11-29 0-12-4-21-11-29z m-415-529c81 0 150 28 207 85 56 56 85 125 85 206 0 82-29 151-85 207-57 57-126 85-207 85-81 0-150-28-207-85-56-56-85-125-85-207 0-81 29-150 85-206 57-57 126-85 207-85z" horiz-adv-x="1000" />

<glyph glyph-name="mds_ic_apps" unicode="&#xe807;" d="M225-4c-22 0-41 8-56 23-15 15-23 34-23 56 0 22 8 41 23 56 15 16 34 23 56 23 22 0 41-7 56-23 16-15 23-34 23-56 0-22-7-41-23-56-15-15-34-23-56-23z m275 0c-22 0-40 8-56 23-15 15-23 34-23 56 0 22 8 41 23 56 15 16 34 23 56 23 22 0 41-7 56-23 15-15 23-34 23-56 0-22-8-41-23-56-15-15-34-23-56-23z m275 0c-22 0-41 8-56 23-16 15-23 34-23 56 0 22 7 41 23 56 15 16 34 23 56 23 22 0 41-7 56-23 15-15 23-34 23-56 0-22-8-41-23-56-15-15-34-23-56-23z m-550 275c-22 0-41 8-56 23-15 15-23 34-23 56 0 22 8 41 23 56 15 15 34 23 56 23 22 0 41-8 56-23 16-15 23-34 23-56 0-22-7-40-23-56-15-15-34-23-56-23z m275 0c-22 0-40 8-56 23-15 15-23 34-23 56 0 22 8 41 23 56 15 15 34 23 56 23 22 0 41-8 56-23 15-15 23-34 23-56 0-22-8-40-23-56-15-15-34-23-56-23z m275 0c-22 0-41 8-56 23-16 15-23 34-23 56 0 22 7 41 23 56 15 15 34 23 56 23 22 0 41-8 56-23 15-15 23-34 23-56 0-22-8-40-23-56-15-15-34-23-56-23z m-550 275c-22 0-41 8-56 23-15 15-23 34-23 56 0 22 8 41 23 56 15 15 34 23 56 23 22 0 41-8 56-23 16-15 23-34 23-56 0-22-7-41-23-56-15-15-34-23-56-23z m275 0c-22 0-40 8-56 23-15 15-23 34-23 56 0 22 8 41 23 56 15 15 34 23 56 23 22 0 41-8 56-23 15-15 23-34 23-56 0-22-8-41-23-56-15-15-34-23-56-23z m275 0c-22 0-41 8-56 23-16 15-23 34-23 56 0 22 7 41 23 56 15 15 34 23 56 23 22 0 41-8 56-23 15-15 23-34 23-56 0-22-8-41-23-56-15-15-34-23-56-23z" horiz-adv-x="1000" />

<glyph glyph-name="mds_ic_app_screen" unicode="&#xe808;" d="M375 475c-12 0-22 4-30 12-8 8-12 18-12 30 0 12 4 21 12 29 8 8 18 12 30 12h250c12 0 22-4 30-12 8-8 12-17 12-29 0-12-4-22-12-30-8-8-18-12-30-12h-250z m-83-583c-23 0-43 8-59 24-16 16-25 36-25 59v750c0 23 9 43 25 59 16 16 36 24 59 24h416c23 0 43-8 59-24 17-16 25-36 25-59v-750c0-23-8-43-25-59-16-16-36-24-59-24h-416z m0 208h416v500h-416v-500z" horiz-adv-x="1000" />

<glyph glyph-name="mds_ic_app_screen_outline" unicode="&#xe809;" d="M375 475c-12 0-22 4-30 12-8 8-12 18-12 30 0 12 4 21 12 29 8 8 18 12 30 12h250c12 0 22-4 30-12 8-8 12-17 12-29 0-12-4-22-12-30-8-8-18-12-30-12h-250z m-83-583c-23 0-43 8-59 24-16 16-25 36-25 59v750c0 23 9 43 25 59 16 16 36 24 59 24h416c23 0 43-8 59-24 17-16 25-36 25-59v-750c0-23-8-43-25-59-16-16-36-24-59-24h-416z m0 125v-42h416v42h-416z m0 83h416v500h-416v-500z m0 583h416v42h-416v-42z" horiz-adv-x="1000" />

<glyph glyph-name="mds_ic_arrow_backward" unicode="&#xe80a;" d="M326 308l204-204c9-8 13-18 12-29 0-11-4-21-13-29-8-8-18-12-29-12-11 0-21 4-29 12l-275 275c-4 4-7 9-9 13-2 5-3 10-3 16 0 6 1 11 3 16 2 5 5 9 9 13l275 275c8 8 17 12 29 12 11 0 21-4 29-12 9-8 13-18 13-29 0-12-4-22-13-30l-203-203h466c12 0 21-4 29-12 8-8 12-18 12-30 0-12-4-22-12-30-8-8-17-12-29-12h-466z" horiz-adv-x="1000" />

<glyph glyph-name="mds_ic_arrow_downward" unicode="&#xe80b;" d="M541 158l204 205c9 8 18 12 30 12 11-1 20-5 29-13 7-9 11-19 12-30 0-11-4-20-12-29l-275-275c-4-4-9-7-14-9-5-1-10-2-15-2-6 0-11 1-16 2-5 2-9 5-14 9l-275 275c-7 8-11 17-11 29 0 11 4 21 11 30 9 8 19 12 30 12 11 0 21-4 30-12l203-204 0 466c0 12 4 22 12 30 8 8 18 12 30 12 11 0 21-4 29-12 8-8 12-18 12-30l0-466z" horiz-adv-x="1000" />

<glyph glyph-name="mds_ic_arrow_drop_down" unicode="&#xe80c;" d="M478 247l-151 151c-2 2-4 4-5 7-1 2-1 5-1 8 0 5 2 10 6 14 3 4 8 6 15 6h316c7 0 12-2 15-6 4-4 6-9 6-14 0-2-2-7-6-15l-151-151c-4-4-7-6-10-7-4-2-8-2-12-2-4 0-8 0-11 2-4 1-7 3-11 7z" horiz-adv-x="1000" />

<glyph glyph-name="mds_ic_arrow_drop_up" unicode="&#xe80d;" d="M342 267c-7 0-12 2-15 6-4 4-6 9-6 15 0 1 2 6 6 14l151 151c4 4 7 6 11 7 3 2 7 3 11 3 4 0 8-1 12-3 3-1 6-3 10-7l151-151c2-2 4-4 5-7 1-2 1-5 1-7 0-6-2-11-6-15-3-4-8-6-15-6h-316z" horiz-adv-x="1000" />

<glyph glyph-name="mds_ic_arrow_forward" unicode="&#xe80e;" d="M692 392l-204 204c-9 8-13 18-12 29 0 11 4 21 13 29 8 8 18 12 29 12 11 1 21-3 29-12l275-275c4-4 7-8 9-13 2-5 2-10 2-16 0-6 0-11-2-16-2-4-5-9-9-13l-275-275c-8-8-17-12-29-12-11 0-21 4-29 12-9 8-13 18-13 30 0 11 4 21 13 29l203 203-466 0c-12 0-22 4-30 12-8 8-12 18-12 30 0 12 4 22 12 30 8 8 18 12 30 12l466 0z" horiz-adv-x="1000" />

<glyph glyph-name="mds_ic_arrow_north_east" unicode="&#xe80f;" d="M732 500l-454-454c-7-8-17-12-29-12-12 0-22 4-29 12-8 8-12 17-12 29 0 12 4 22 12 29l454 454h-233c-12 0-22 4-30 12-8 8-12 18-12 30 0 12 4 22 12 30 8 8 18 12 30 12h333c12 0 22-4 30-12 8-8 12-18 12-30v-333c0-12-4-22-12-30-8-8-18-12-30-12-12 0-22 4-30 12-8 8-12 18-12 30v233z" horiz-adv-x="1000" />

<glyph glyph-name="mds_ic_arrow_south_east" unicode="&#xe810;" d="M774 58c12 0 22 4 30 12 8 8 12 18 12 30v333c0 12-4 22-12 30-8 8-18 12-30 12-12 0-22-4-30-12-8-8-12-18-12-30v-233l-454 454c-7 8-17 12-29 12-12 0-22-4-29-12-8-7-12-17-12-29 0-12 4-21 12-29l454-454h-233c-12 0-22-4-30-12-8-8-12-18-12-30 0-12 4-22 12-30 8-8 18-12 30-12h333z" horiz-adv-x="1000" />

<glyph glyph-name="mds_ic_arrow_upward" unicode="&#xe811;" d="M458 524l-204-204c-8-8-18-12-29-12-11 0-21 5-29 13-8 8-12 18-12 29 0 11 4 21 12 29l275 275c4 4 9 7 13 9 5 2 10 3 16 3 6 0 11-1 16-3 5-2 9-5 13-9l275-275c8-7 12-17 12-28 0-12-4-22-12-30-8-8-18-13-29-13-12 0-22 5-30 13l-203 203v-466c0-11-4-21-12-29-8-8-18-12-30-12-12 0-22 4-30 12-8 8-12 18-12 29v466z" horiz-adv-x="1000" />

<glyph glyph-name="mds_ic_article" unicode="&#xe812;" d="M321 137h225c9 0 18 3 25 10 7 7 10 16 10 26 0 10-3 18-10 25-7 7-16 11-25 11h-225c-11 0-20-4-27-11-7-7-10-15-10-25 0-10 3-19 10-26 7-7 16-10 27-10z m0 177h360c9 0 18 4 25 11 7 7 10 16 10 26 0 10-3 18-10 25-7 7-16 10-25 10h-360c-11 0-20-3-27-10-7-7-10-16-10-25 0-11 3-19 10-26 7-7 16-11 27-11z m0 178h360c9 0 18 4 25 11 7 7 10 16 10 26 0 10-3 18-10 25-7 7-16 10-25 10h-360c-11 0-19-3-26-10-8-7-11-16-11-25 0-11 3-19 11-26 7-7 15-11 26-11z m-131-533c-22 0-41 8-57 24-16 16-24 35-24 57v620c0 22 8 41 24 57 16 16 35 24 57 24h620c22 0 41-8 57-24 16-16 24-35 24-57v-620c0-22-8-41-24-57-16-16-35-24-57-24h-620z" horiz-adv-x="1000" />

<glyph glyph-name="mds_ic_article_outline" unicode="&#xe813;" d="M323 142h224c9 0 16 3 23 9 7 7 10 15 10 24 0 9-3 16-10 23-7 7-14 10-23 10h-224c-10 0-18-3-24-10-7-7-10-14-10-23 0-10 3-18 10-24 6-6 14-9 24-9z m0 175h356c8 0 16 3 23 9 6 7 10 15 10 25 0 9-4 17-10 23-7 6-15 9-23 9h-356c-10 0-18-3-24-9-7-7-10-15-10-23 0-10 3-18 10-25 6-6 14-9 24-9z m0 176h356c8 0 16 3 23 10 6 6 10 14 10 24 0 9-4 16-10 23-7 6-15 10-23 10h-356c-10 0-18-4-24-10-7-7-10-15-10-24 0-9 3-17 10-23 6-7 14-10 24-10z m-130-537c-24 0-44 9-61 26-17 17-26 37-26 61v614c0 24 9 44 26 62 17 17 37 25 61 25h614c24 0 44-8 62-25 17-18 25-38 25-62v-614c0-24-8-44-25-61-18-17-38-26-62-26h-614z m0 87h614v614h-614v-614z" horiz-adv-x="1000" />

<glyph glyph-name="mds_ic_attachment" unicode="&#xe814;" d="M344 79c-72 0-134 26-185 76-50 51-76 112-76 185 0 72 26 133 76 184 51 51 113 76 185 76h385c52 0 97-18 133-55 36-36 55-80 55-132 0-53-19-97-55-133-36-37-81-55-133-55h-364c-32 0-59 11-82 33-22 23-33 50-33 82 0 32 11 59 33 81 23 22 50 33 82 33h343c12 0 22-4 30-12 8-8 12-18 12-29 0-12-4-22-12-30-8-8-18-12-30-12h-343c-9 0-17-3-23-9-6-6-9-13-9-22 0-9 3-17 9-23 6-6 14-9 23-9h364c29 1 54 11 74 31 20 20 30 44 30 74 0 29-10 53-30 74-20 20-45 30-74 30h-385c-50 0-91-17-126-51-34-35-51-77-51-126 0-49 17-90 51-124 35-34 76-52 126-53h364c12 0 22-4 30-12 8-8 12-18 12-30 0-12-4-22-12-30-8-8-18-12-30-12h-364z" horiz-adv-x="1000" />

<glyph glyph-name="mds_ic_bank_account" unicode="&#xe815;" d="M208 152v208c0 12 4 22 12 30 8 8 18 12 30 12 12 0 22-4 30-12 8-8 12-18 12-30v-208c0-12-4-22-12-30-8-8-18-12-30-12-12 0-22 4-30 12-8 8-12 18-12 30z m250 0v208c0 12 4 22 12 30 8 8 18 12 30 12 12 0 22-4 30-12 8-8 12-18 12-30v-208c0-12-4-22-12-30-8-8-18-12-30-12-12 0-22 4-30 12-8 8-12 18-12 30z m-333-208c-12 0-22 4-30 12-8 8-12 18-12 29 0 12 4 22 12 30 8 8 18 12 30 12h750c12 0 22-4 30-12 8-8 12-18 12-30 0-11-4-21-12-29-8-8-18-12-30-12h-750z m583 208v208c0 12 4 22 12 30 8 8 18 12 30 12 12 0 22-4 30-12 8-8 12-18 12-30v-208c0-12-4-22-12-30-8-8-18-12-30-12-12 0-22 4-30 12-8 8-12 18-12 30z m167 333h-754c-11 0-19 4-27 11-7 8-11 17-11 27v23c0 8 2 14 6 20 4 5 9 10 15 13l359 179c11 6 24 9 37 9 13 0 26-3 38-9l356-178c7-3 13-8 17-15 4-7 6-15 6-22v-16c0-12-4-22-12-30-8-8-18-12-30-12z" horiz-adv-x="1000" />

<glyph glyph-name="mds_ic_bank_account_outline" unicode="&#xe816;" d="M208 152v208c0 12 4 22 12 30 8 8 18 12 30 12 12 0 22-4 30-12 8-8 12-18 12-30v-208c0-12-4-22-12-30-8-8-18-12-30-12-12 0-22 4-30 12-8 8-12 18-12 30z m250 0v208c0 12 4 22 12 30 8 8 18 12 30 12 12 0 22-4 30-12 8-8 12-18 12-30v-208c0-12-4-22-12-30-8-8-18-12-30-12-12 0-22 4-30 12-8 8-12 18-12 30z m-333-208c-12 0-22 4-30 12-8 8-12 18-12 29 0 12 4 22 12 30 8 8 18 12 30 12h750c12 0 22-4 30-12 8-8 12-18 12-30 0-11-4-21-12-29-8-8-18-12-30-12h-750z m583 208v208c0 12 4 22 12 30 8 8 18 12 30 12 12 0 22-4 30-12 8-8 12-18 12-30v-208c0-12-4-22-12-30-8-8-18-12-30-12-12 0-22 4-30 12-8 8-12 18-12 30z m167 333h-754c-11 0-19 4-27 11-7 8-11 17-11 27v23c0 8 2 14 6 20 4 5 9 10 15 13l359 179c11 6 24 9 37 9 13 0 26-3 38-9l356-178c7-3 13-8 17-15 4-7 6-15 6-22v-16c0-12-4-22-12-30-8-8-18-12-30-12z m-606 84h462l-231 114-231-114z" horiz-adv-x="1000" />

<glyph glyph-name="mds_ic_bar_graph_chart" unicode="&#xe817;" d="M750 17c-23 0-42 8-59 24-16 17-24 36-24 59v125c0 23 8 43 24 59 17 16 36 24 59 24 23 0 43-8 59-24 16-16 24-36 24-59v-125c0-23-8-42-24-59-16-16-36-24-59-24z m-250 0c-23 0-42 8-59 24-16 17-24 36-24 59v500c0 23 8 43 24 59 17 16 36 24 59 24 23 0 43-8 59-24 16-16 24-36 24-59v-500c0-23-8-42-24-59-16-16-36-24-59-24z m-250 0c-23 0-42 8-59 24-16 17-24 36-24 59v292c0 23 8 42 24 59 17 16 36 24 59 24 23 0 43-8 59-24 16-17 24-36 24-59v-292c0-23-8-42-24-59-16-16-36-24-59-24z" horiz-adv-x="1000" />

<glyph glyph-name="mds_ic_block_stop" unicode="&#xe818;" d="M500-67c-58 0-112 11-162 33-51 22-95 52-133 89-37 38-67 82-89 133-22 50-33 104-33 162 0 58 11 112 33 163 22 50 52 94 89 132 38 37 82 67 133 89 50 22 104 33 162 33 58 0 112-11 163-33 50-22 94-52 132-89 37-38 67-82 89-132 22-51 33-105 33-163 0-58-11-112-33-162-22-51-52-95-89-133-38-37-82-67-132-89-51-22-105-33-163-33z m0 84c38 0 74 6 108 18 35 12 67 30 96 53l-466 466c-23-29-41-61-53-96-12-34-18-70-18-108 0-93 32-172 97-236 64-65 143-97 236-97z m263 129c22 29 40 61 52 96 12 34 18 71 18 108 0 93-32 172-96 237-65 64-144 96-237 96-37 0-74-6-108-18-35-12-67-30-96-52l467-467z" horiz-adv-x="1000" />

<glyph glyph-name="mds_ic_bookmarks" unicode="&#xe819;" d="M417-25l-175-75c-28-12-54-10-79 7-25 16-38 39-38 69v541c0 23 8 42 25 59 16 16 35 24 58 24h417c23 0 43-8 59-24 16-17 24-36 24-59v-541c0-30-12-53-37-69-25-17-52-19-79-7l-175 75z m416 0c-11 0-21 4-29 12-8 8-12 18-12 30v666h-500c-12 0-22 4-30 12-8 8-12 18-12 30 0 12 4 22 12 30 8 8 18 12 30 12h500c23 0 42-8 59-25 16-16 24-36 24-59v-666c0-12-4-22-12-30-8-8-18-12-30-12z" horiz-adv-x="1000" />

<glyph glyph-name="mds_ic_bookmark_watchlist_selected" unicode="&#xe81a;" d="M500 58l-175-75c-28-12-54-9-79 7-25 16-38 40-38 69v541c0 23 9 43 25 59 16 16 36 24 59 24h416c23 0 43-8 59-24 17-16 25-36 25-59v-541c0-29-13-53-38-69-25-16-51-19-79-7l-175 75z" horiz-adv-x="1000" />

<glyph glyph-name="mds_ic_bookmark_watchlist_unselected_outline" unicode="&#xe81b;" d="M500 58l-175-75c-28-12-54-9-79 7-25 16-38 40-38 69v541c0 23 9 43 25 59 16 16 36 24 59 24h416c23 0 43-8 59-24 17-16 25-36 25-59v-541c0-29-13-53-38-69-25-16-51-19-79-7l-175 75z m0 92l208-90v540h-416v-540l208 90z" horiz-adv-x="1000" />

<glyph glyph-name="mds_ic_calendar" unicode="&#xe81c;" d="M604 100c-29 0-54 10-74 30-20 20-30 45-30 74 0 29 10 54 30 74 20 20 45 30 74 30 29 0 54-10 74-30 20-20 30-45 30-74 0-29-10-54-30-74-20-20-45-30-74-30z m-396-167c-23 0-42 8-58 25-17 16-25 36-25 59v583c0 23 8 43 25 59 16 16 35 24 58 24h42v42c0 12 4 22 12 30 8 8 18 12 30 12 12 0 21-4 29-12 8-8 12-18 12-30v-42h334v42c0 12 4 22 12 30 8 8 18 12 29 12 12 0 22-4 30-12 8-8 12-18 12-30v-42h42c23 0 42-8 59-24 16-16 24-36 24-59v-583c0-23-8-43-24-59-17-17-36-25-59-25h-584z m0 84h584v416h-584v-416z m0 500h584v83h-584v-83z" horiz-adv-x="1000" />

<glyph glyph-name="mds_ic_call_phone" unicode="&#xe81d;" d="M831-25c-87 0-172 19-257 57-85 38-162 91-231 161-70 69-123 146-161 231-38 85-57 170-57 257 0 13 4 23 13 32 8 8 18 12 31 12h169c9 0 18-3 26-10 7-6 12-14 13-23l27-146c2-11 1-21-1-28-2-8-6-14-11-20l-101-102c14-26 30-51 49-75 19-24 40-47 63-69 22-21 44-41 68-60 23-18 48-35 75-50l98 98c6 6 14 11 24 14 10 3 20 4 30 2l144-29c9-3 17-8 24-15 6-7 9-15 9-24v-169c0-13-4-23-12-32-9-8-19-12-32-12z" horiz-adv-x="1000" />

<glyph glyph-name="mds_ic_call_phone_outline" unicode="&#xe81e;" d="M831-25c-87 0-172 19-257 57-85 38-162 91-231 161-70 69-123 146-161 231-38 85-57 170-57 257 0 13 4 23 13 32 8 8 18 12 31 12h169c9 0 18-3 26-10 7-6 12-14 13-23l27-146c2-11 1-21-1-28-2-8-6-14-11-20l-101-102c14-26 30-51 49-75 19-24 40-47 63-69 22-21 44-41 68-60 23-18 48-35 75-50l98 98c6 6 14 11 24 14 10 3 20 4 30 2l144-29c9-3 17-8 24-15 6-7 9-15 9-24v-169c0-13-4-23-12-32-9-8-19-12-32-12z m-580 500l69 69-18 98h-93c4-29 9-57 15-85 6-27 15-55 27-82z m373-373c27-12 55-21 83-28 28-7 56-11 85-14v92l-98 20-70-70z" horiz-adv-x="1000" />

<glyph glyph-name="mds_ic_camera" unicode="&#xe81f;" d="M500 121c52 0 96 18 133 55 36 36 55 80 55 132 0 52-19 97-55 133-37 37-81 55-133 55-52 0-96-18-133-55-36-36-54-81-54-133 0-52 18-96 54-132 37-37 81-55 133-55z m0 83c-29 0-54 10-74 30-20 21-30 45-30 74 0 30 10 54 30 74 20 20 45 31 74 31 29 0 54-11 74-31 20-20 30-44 30-74 0-29-10-53-30-74-20-20-45-30-74-30z m-333-229c-23 0-43 8-59 24-16 17-25 36-25 59v500c0 23 9 43 25 59 16 17 36 25 59 25h131l77 83h250l77-83h131c23 0 43-8 59-25 17-16 25-36 25-59v-500c0-23-8-42-25-59-16-16-36-24-59-24h-666z" horiz-adv-x="1000" />

<glyph glyph-name="mds_ic_camera_outline" unicode="&#xe820;" d="M500 121c52 0 96 18 133 55 36 36 55 80 55 132 0 52-19 97-55 133-37 37-81 55-133 55-52 0-96-18-133-55-36-36-54-81-54-133 0-52 18-96 54-132 37-37 81-55 133-55z m0 83c-29 0-54 10-74 30-20 21-30 45-30 74 0 30 10 54 30 74 20 20 45 31 74 31 29 0 54-11 74-31 20-20 30-44 30-74 0-29-10-53-30-74-20-20-45-30-74-30z m-333-229c-23 0-43 8-59 24-16 17-25 36-25 59v500c0 23 9 43 25 59 16 17 36 25 59 25h131l77 83h250l77-83h131c23 0 43-8 59-25 17-16 25-36 25-59v-500c0-23-8-42-25-59-16-16-36-24-59-24h-666z m0 83h666v500h-168l-76 84h-177l-77-84h-168v-500z" horiz-adv-x="1000" />

<glyph glyph-name="mds_ic_cancel_circle" unicode="&#xe821;" d="M500 292l121-121c8-8 17-12 29-12 12 0 22 4 29 12 8 8 12 17 12 29 0 12-4 22-12 29l-121 121 121 121c8 8 12 17 12 29 0 12-4 22-12 29-7 8-17 12-29 12-12 0-21-4-29-12l-121-121-121 121c-7 8-17 12-29 12-12 0-21-4-29-12-8-7-12-17-12-29 0-12 4-21 12-29l121-121-121-121c-8-7-12-17-12-29 0-12 4-21 12-29 8-8 17-12 29-12 12 0 22 4 29 12l121 121z m0-359c-58 0-112 11-162 33-51 22-95 52-133 89-37 38-67 82-89 133-22 50-33 104-33 162 0 58 11 112 33 163 22 50 52 94 89 132 38 37 82 67 133 89 50 22 104 33 162 33 58 0 112-11 163-33 50-22 94-52 132-89 37-38 67-82 89-132 22-51 33-105 33-163 0-58-11-112-33-162-22-51-52-95-89-133-38-37-82-67-132-89-51-22-105-33-163-33z" horiz-adv-x="1000" />

<glyph glyph-name="mds_ic_cancel_circle_outline" unicode="&#xe822;" d="M500 292l121-121c8-8 17-12 29-12 12 0 22 4 29 12 8 8 12 17 12 29 0 12-4 22-12 29l-121 121 121 121c8 8 12 17 12 29 0 12-4 22-12 29-7 8-17 12-29 12-12 0-21-4-29-12l-121-121-121 121c-7 8-17 12-29 12-12 0-21-4-29-12-8-7-12-17-12-29 0-12 4-21 12-29l121-121-121-121c-8-7-12-17-12-29 0-12 4-21 12-29 8-8 17-12 29-12 12 0 22 4 29 12l121 121z m0-359c-58 0-112 11-162 33-51 22-95 52-133 89-37 38-67 82-89 133-22 50-33 104-33 162 0 58 11 112 33 163 22 50 52 94 89 132 38 37 82 67 133 89 50 22 104 33 162 33 58 0 112-11 163-33 50-22 94-52 132-89 37-38 67-82 89-132 22-51 33-105 33-163 0-58-11-112-33-162-22-51-52-95-89-133-38-37-82-67-132-89-51-22-105-33-163-33z m0 84c93 0 172 32 237 97 64 64 96 143 96 236 0 93-32 172-96 237-65 64-144 96-237 96-93 0-172-32-236-96-65-65-97-144-97-237 0-93 32-172 97-236 64-65 143-97 236-97z" horiz-adv-x="1000" />

<glyph glyph-name="mds_ic_category" unicode="&#xe823;" d="M309 455l156 253c4 7 9 12 15 15 7 4 13 5 20 5 7 0 14-1 20-5 6-3 11-8 15-15l156-253c4-7 6-14 6-22 0-7-2-14-5-20-4-7-9-12-15-16-6-3-13-5-22-5h-310c-8 0-16 2-22 5-6 4-11 9-15 16-3 6-5 13-5 20 0 8 2 15 6 22z m420-522c-52 0-96 19-133 55-36 37-54 81-54 133 0 52 18 96 54 133 37 36 81 54 133 54 52 0 97-18 133-54 36-37 55-81 55-133 0-52-19-96-55-133-36-36-81-55-133-55z m-604 63v250c0 12 4 22 12 30 8 8 18 12 30 12h250c12 0 21-4 29-12 8-8 12-18 12-30v-250c0-12-4-22-12-30-8-8-17-12-29-12h-250c-12 0-22 4-30 12-8 8-12 18-12 30z" horiz-adv-x="1000" />

<glyph glyph-name="mds_ic_category_outline" unicode="&#xe824;" d="M309 455l156 253c4 7 9 12 15 15 7 4 13 5 20 5 7 0 14-1 20-5 6-3 11-8 15-15l156-253c4-7 6-14 6-22 0-7-2-14-5-20-4-7-9-12-15-16-6-3-13-5-22-5h-310c-8 0-16 2-22 5-6 4-11 9-15 16-3 6-5 13-5 20 0 8 2 15 6 22z m420-522c-52 0-96 19-133 55-36 37-54 81-54 133 0 52 18 96 54 133 37 36 81 54 133 54 52 0 97-18 133-54 36-37 55-81 55-133 0-52-19-96-55-133-36-36-81-55-133-55z m-604 63v250c0 12 4 22 12 30 8 8 18 12 30 12h250c12 0 21-4 29-12 8-8 12-18 12-30v-250c0-12-4-22-12-30-8-8-17-12-29-12h-250c-12 0-22 4-30 12-8 8-12 18-12 30z m604 21c29 0 54 10 74 30 20 20 30 45 30 74 0 29-10 54-30 74-20 20-45 30-74 30-29 0-54-10-74-30-20-20-30-45-30-74 0-29 10-54 30-74 20-20 45-30 74-30z m-521 21h167v166h-167v-166z m211 437h162l-81 131-81-131z" horiz-adv-x="1000" />

<glyph glyph-name="mds_ic_chat_comment_bubble" unicode="&#xe825;" d="M250 58l-96-96c-13-13-28-16-45-8-17 7-26 20-26 39v649c0 23 9 42 25 59 16 16 36 24 59 24h666c23 0 43-8 59-24 17-17 25-36 25-59v-500c0-23-8-43-25-59-16-16-36-25-59-25h-583z" horiz-adv-x="1000" />

<glyph glyph-name="mds_ic_chat_comment_bubble_outline" unicode="&#xe826;" d="M250 58l-96-96c-13-13-28-16-45-8-17 7-26 20-26 39v649c0 23 9 42 25 59 16 16 36 24 59 24h666c23 0 43-8 59-24 17-17 25-36 25-59v-500c0-23-8-43-25-59-16-16-36-25-59-25h-583z m-35 84h618v500h-666v-547l48 47z" horiz-adv-x="1000" />

<glyph glyph-name="mds_ic_chat_comment_double" unicode="&#xe827;" d="M292 58c-12 0-22 4-30 12-8 8-12 18-12 30v83h542v375h83c12 0 22-4 30-12 8-8 12-17 12-29v-524c0-19-9-32-26-39-17-8-32-5-45 8l-96 96h-458z m-42 209l-96-96c-13-13-28-16-45-9-17 7-26 20-26 39v482c0 12 4 22 12 30 8 8 18 12 30 12h542c12 0 21-4 29-12 8-8 12-18 12-30v-375c0-11-4-21-12-29-8-8-17-12-29-12h-417z" horiz-adv-x="1000" />

<glyph glyph-name="mds_ic_chat_comment_double_outline" unicode="&#xe828;" d="M292 58c-12 0-22 4-30 12-8 8-12 18-12 30v83h542v375h83c12 0 22-4 30-12 8-8 12-17 12-29v-524c0-19-9-32-26-39-17-8-32-5-45 8l-96 96h-458z m-42 209l-96-96c-13-13-28-16-45-9-17 7-26 20-26 39v482c0 12 4 22 12 30 8 8 18 12 30 12h542c12 0 21-4 29-12 8-8 12-18 12-30v-375c0-11-4-21-12-29-8-8-17-12-29-12h-417z m375 83v292h-458v-292h458z" horiz-adv-x="1000" />

<glyph glyph-name="mds_ic_chat_sms" unicode="&#xe829;" d="M333 392c12 0 22 4 30 12 8 8 12 18 12 29 0 12-4 22-12 30-8 8-18 12-30 12-11 0-21-4-29-12-8-8-12-18-12-30 0-11 4-21 12-29 8-8 18-12 29-12z m167 0c12 0 22 4 30 12 8 8 12 18 12 29 0 12-4 22-12 30-8 8-18 12-30 12-12 0-22-4-30-12-8-8-12-18-12-30 0-11 4-21 12-29 8-8 18-12 30-12z m167 0c12 0 21 4 29 12 8 8 12 18 12 29 0 12-4 22-12 30-8 8-17 12-29 12-12 0-22-4-30-12-8-8-12-18-12-30 0-11 4-21 12-29 8-8 18-12 30-12z m-417-292l-96-96c-13-13-28-16-45-9-17 8-26 21-26 39v649c0 23 9 43 25 59 16 17 36 25 59 25h666c23 0 43-8 59-25 17-16 25-36 25-59v-500c0-23-8-42-25-58-16-17-36-25-59-25h-583z" horiz-adv-x="1000" />

<glyph glyph-name="mds_ic_chat_sms_outline" unicode="&#xe82a;" d="M333 392c12 0 22 4 30 12 8 8 12 18 12 29 0 12-4 22-12 30-8 8-18 12-30 12-11 0-21-4-29-12-8-8-12-18-12-30 0-11 4-21 12-29 8-8 18-12 29-12z m167 0c12 0 22 4 30 12 8 8 12 18 12 29 0 12-4 22-12 30-8 8-18 12-30 12-12 0-22-4-30-12-8-8-12-18-12-30 0-11 4-21 12-29 8-8 18-12 30-12z m167 0c12 0 21 4 29 12 8 8 12 18 12 29 0 12-4 22-12 30-8 8-17 12-29 12-12 0-22-4-30-12-8-8-12-18-12-30 0-11 4-21 12-29 8-8 18-12 30-12z m-417-292l-96-96c-13-13-28-16-45-9-17 8-26 21-26 39v649c0 23 9 43 25 59 16 17 36 25 59 25h666c23 0 43-8 59-25 17-16 25-36 25-59v-500c0-23-8-42-25-58-16-17-36-25-59-25h-583z m-35 83h618v500h-666v-546l48 46z" horiz-adv-x="1000" />

<glyph glyph-name="mds_ic_check" unicode="&#xe82b;" d="M398 260l353 354c8 8 18 12 30 12 11 0 21-4 29-12 9-9 13-19 13-30 0-12-4-21-13-30l-383-383c-8-8-18-13-29-13-11 0-21 5-29 13l-179 179c-9 8-13 18-12 30 0 11 4 21 13 29 8 9 18 13 29 13 12 0 22-4 30-13l148-149z" horiz-adv-x="1000" />

<glyph glyph-name="mds_ic_checkbox_selected" unicode="&#xe82c;" d="M442 292l-90 89c-8 8-17 12-29 12-12 0-22-4-29-12-8-7-12-17-12-29 0-12 4-21 12-29l119-119c8-8 18-12 29-12 11 0 21 4 29 12l235 236c8 7 12 17 12 29 0 12-4 21-12 29-7 8-17 11-29 11-12 0-21-3-29-11l-206-206z m-234-317c-23 0-42 8-58 24-17 17-25 36-25 59v584c0 23 8 42 25 59 16 16 35 24 58 24h584c23 0 42-8 59-24 16-17 24-36 24-59v-584c0-23-8-42-24-59-17-16-36-24-59-24h-584z" horiz-adv-x="1000" />

<glyph glyph-name="mds_ic_checkbox_selected_line" unicode="&#xe82d;" d="M442 292l-90 89c-8 8-17 12-29 12-12 0-22-4-29-12-8-7-12-17-12-29 0-12 4-21 12-29l119-119c8-8 18-12 29-12 11 0 21 4 29 12l235 236c8 7 12 17 12 29 0 12-4 21-12 29-7 8-17 11-29 11-12 0-21-3-29-11l-206-206z m-234-317c-23 0-42 8-58 24-17 17-25 36-25 59v584c0 23 8 42 25 59 16 16 35 24 58 24h584c23 0 42-8 59-24 16-17 24-36 24-59v-584c0-23-8-42-24-59-17-16-36-24-59-24h-584z m0 83h584v584h-584v-584z" horiz-adv-x="1000" />

<glyph glyph-name="mds_ic_checkbox_unselected" unicode="&#xe82e;" d="M208-25c-23 0-42 8-58 24-17 17-25 36-25 59v584c0 23 8 42 25 59 16 16 35 24 58 24h584c23 0 42-8 59-24 16-17 24-36 24-59v-584c0-23-8-42-24-59-17-16-36-24-59-24h-584z m0 83h584v584h-584v-584z" horiz-adv-x="1000" />

<glyph glyph-name="mds_ic_check_circle_selected" unicode="&#xe82f;" d="M442 275l-90 90c-8 7-17 11-29 11-12 0-22-4-29-11-8-8-12-18-12-30 0-11 4-21 12-29l119-118c8-9 18-13 29-13 11 0 21 4 29 13l235 235c8 8 12 17 12 29 0 12-4 22-12 29-7 8-17 12-29 12-12 0-21-4-29-12l-206-206z m58-342c-58 0-112 11-162 33-51 22-95 52-133 89-37 38-67 82-89 133-22 50-33 104-33 162 0 58 11 112 33 163 22 50 52 94 89 132 38 37 82 67 133 89 50 22 104 33 162 33 58 0 112-11 163-33 50-22 94-52 132-89 37-38 67-82 89-132 22-51 33-105 33-163 0-58-11-112-33-162-22-51-52-95-89-133-38-37-82-67-132-89-51-22-105-33-163-33z" horiz-adv-x="1000" />

<glyph glyph-name="mds_ic_check_circle_unselected_outline" unicode="&#xe830;" d="M442 275l-90 90c-8 7-17 11-29 11-12 0-22-4-29-11-8-8-12-18-12-30 0-11 4-21 12-29l119-118c8-9 18-13 29-13 11 0 21 4 29 13l235 235c8 8 12 17 12 29 0 12-4 22-12 29-7 8-17 12-29 12-12 0-21-4-29-12l-206-206z m58-342c-58 0-112 11-162 33-51 22-95 52-133 89-37 38-67 82-89 133-22 50-33 104-33 162 0 58 11 112 33 163 22 50 52 94 89 132 38 37 82 67 133 89 50 22 104 33 162 33 58 0 112-11 163-33 50-22 94-52 132-89 37-38 67-82 89-132 22-51 33-105 33-163 0-58-11-112-33-162-22-51-52-95-89-133-38-37-82-67-132-89-51-22-105-33-163-33z m0 84c93 0 172 32 237 97 64 64 96 143 96 236 0 93-32 172-96 237-65 64-144 96-237 96-93 0-172-32-236-96-65-65-97-144-97-237 0-93 32-172 97-236 64-65 143-97 236-97z" horiz-adv-x="1000" />

<glyph glyph-name="mds_ic_chevron_double_close" unicode="&#xe831;" d="M246 350l97-97c8-8 12-18 12-30 0-12-4-22-12-30-9-9-19-13-30-13-12 0-22 4-31 13l-128 128c-4 4-7 9-9 13-1 5-2 10-2 16 0 6 1 11 2 16 2 5 5 9 9 13l128 128c9 9 19 13 31 13 11 0 21-4 30-13 8-8 12-18 12-30 0-12-4-22-12-30l-97-97z m504 0l-97 97c-8 8-12 18-12 30 0 12 4 22 12 30 9 9 19 13 30 13 12 0 22-4 31-13l128-128c4-4 7-8 9-13 1-5 2-10 2-16 0-6-1-11-2-16-2-4-5-9-9-13l-128-128c-9-9-19-13-31-13-11 0-21 4-30 13-8 8-12 18-12 30 0 12 4 22 12 30l97 97z" horiz-adv-x="1000" />

<glyph glyph-name="mds_ic_chevron_double_open" unicode="&#xe832;" d="M704 350l100-100c8-8 12-17 12-29 0-12-4-22-12-29-7-8-17-12-29-12-12 0-21 4-29 12l-129 129c-4 4-7 9-9 13-2 5-3 10-3 16 0 6 1 11 3 16 2 5 5 9 9 13l129 129c8 8 17 12 29 12 12 0 22-4 29-12 8-7 12-17 12-29 0-12-4-21-12-29l-100-100z m-408 0l-100 100c-8 8-12 17-12 29 0 12 4 22 12 29 8 8 17 12 29 12 12 0 22-4 29-12l129-129c5-4 8-8 9-13 2-5 3-10 3-16 0-6-1-11-3-16-1-4-4-9-9-13l-129-129c-7-8-17-12-29-12-12 0-21 4-29 12-8 7-12 17-12 29 0 12 4 21 12 29l100 100z" horiz-adv-x="1000" />

<glyph glyph-name="mds_ic_chevron_down" unicode="&#xe833;" d="M500 227c-6 0-11 1-16 3-4 1-9 4-13 9l-192 191c-7 8-11 18-11 29 0 12 4 22 11 30 8 7 18 11 29 11 12 0 22-4 30-11l162-163 163 163c7 7 17 11 29 11 12 0 21-4 29-11 8-8 11-18 11-30 0-11-3-21-11-29l-192-191c-4-5-8-8-13-9-5-2-10-3-16-3z" horiz-adv-x="1000" />

<glyph glyph-name="mds_ic_chevron_left" unicode="&#xe834;" d="M449 350l163-162c7-8 11-18 11-30 0-11-4-21-11-29-8-7-18-11-30-11-11 0-21 4-29 11l-191 192c-5 4-8 9-9 13-2 5-3 10-3 16 0 6 1 11 3 16 1 5 4 9 9 13l191 192c8 8 18 11 29 11 12 0 22-3 30-11 7-8 11-17 11-29 0-12-4-22-11-29l-163-163z" horiz-adv-x="1000" />

<glyph glyph-name="mds_ic_chevron_right" unicode="&#xe835;" d="M623 350c0-6-1-11-3-16-1-4-4-9-8-13l-192-192c-8-7-18-11-29-11-12 0-22 4-29 11-8 8-12 18-12 29 0 12 4 22 12 30l162 162-162 163c-8 7-12 17-12 29 0 12 4 21 12 29 7 8 17 11 29 11 11 0 21-3 29-11l192-192c4-4 7-8 8-13 2-5 3-10 3-16z" horiz-adv-x="1000" />

<glyph glyph-name="mds_ic_chevron_up" unicode="&#xe836;" d="M500 401l-162-162c-8-8-18-12-30-12-11 0-21 4-29 12-7 7-11 17-11 29 0 12 4 21 11 29l192 192c4 4 9 7 13 8 5 2 10 3 16 3 6 0 11-1 16-3 5-1 9-4 13-8l192-192c8-8 11-17 11-29 0-12-3-22-11-29-8-8-17-12-29-12-12 0-22 4-29 12l-163 162z" horiz-adv-x="1000" />

<glyph glyph-name="mds_ic_close_cross" unicode="&#xe837;" d="M500 292l-204-204c-8-8-17-12-29-12-12 0-22 4-29 12-8 7-12 17-12 29 0 12 4 21 12 29l204 204-204 204c-8 8-12 18-12 29 0 12 4 22 12 30 7 7 17 11 29 11 12 0 21-4 29-11l204-205 204 205c8 7 18 11 29 11 12 0 22-4 30-11 7-8 11-18 11-30 0-11-4-21-11-29l-205-204 205-204c7-8 11-17 11-29 0-12-4-22-11-29-8-8-18-12-30-12-11 0-21 4-29 12l-204 204z" horiz-adv-x="1000" />

<glyph glyph-name="mds_ic_copy" unicode="&#xe838;" d="M375 100c-23 0-42 8-59 25-16 16-24 35-24 58v500c0 23 8 43 24 59 17 17 36 25 59 25h375c23 0 43-8 59-25 16-16 24-36 24-59v-500c0-23-8-42-24-58-16-17-36-25-59-25h-375z m0 83h375v500h-375v-500z m-167-250c-23 0-42 8-58 25-17 16-25 36-25 59v541c0 12 4 22 12 30 8 8 18 12 30 12 12 0 21-4 29-12 8-8 12-18 12-30v-541h417c12 0 22-4 30-12 8-8 12-18 12-30 0-12-4-22-12-30-8-8-18-12-30-12h-417z" horiz-adv-x="1000" />

<glyph glyph-name="mds_ic_credit_card" unicode="&#xe839;" d="M917 600v-500c0-23-8-42-25-59-16-16-36-24-59-24h-666c-23 0-43 8-59 24-16 17-25 36-25 59v500c0 23 9 43 25 59 16 16 36 24 59 24h666c23 0 43-8 59-24 17-16 25-36 25-59z m-750-83h666v83h-666v-83z m0-167v-250h666v250h-666z" horiz-adv-x="1000" />

<glyph glyph-name="mds_ic_dashboard_customize" unicode="&#xe83a;" d="M147 376c-11 0-21 4-28 11-8 8-12 18-12 29v288c0 11 4 21 12 28 7 8 17 12 28 12h288c11 0 21-4 28-12 8-7 12-17 12-28v-288c0-11-4-21-12-29-7-7-17-11-28-11h-288z m419 0c-11 0-21 4-29 11-7 8-11 18-11 29v288c0 11 4 21 11 28 8 8 18 12 29 12h288c11 0 21-4 28-12 8-7 12-17 12-28v-288c0-11-4-21-12-29-7-7-17-11-28-11h-288z m-419-419c-11 0-21 4-28 12-8 7-12 17-12 28v288c0 11 4 21 12 28 7 8 17 12 28 12h288c11 0 21-4 28-12 8-7 12-17 12-28v-288c0-11-4-21-12-28-7-8-17-12-28-12h-288z m564 0c-13 0-22 4-30 12-8 8-11 17-11 29v103h-104c-11 0-21 4-28 11-8 8-12 18-12 29 0 12 4 21 12 29 8 8 17 11 29 11h103v105c0 10 3 19 11 27 8 8 18 12 29 12 12 0 21-4 29-12 7-8 11-17 11-28v-104h105c10 0 19-4 27-12 8-8 12-17 12-27 0-12-4-22-12-30-8-8-17-11-28-11h-104v-104c0-11-4-21-12-28-8-8-17-12-27-12z" horiz-adv-x="1000" />

<glyph glyph-name="mds_ic_dashboard_customize_outline" unicode="&#xe83b;" d="M147 376c-11 0-21 4-28 11-8 8-12 18-12 29v288c0 11 4 21 12 28 7 8 17 12 28 12h288c11 0 21-4 28-12 8-7 12-17 12-28v-288c0-11-4-21-12-29-7-7-17-11-28-11h-288z m419 0c-11 0-21 4-29 11-7 8-11 18-11 29v288c0 11 4 21 11 28 8 8 18 12 29 12h288c11 0 21-4 28-12 8-7 12-17 12-28v-288c0-11-4-21-12-29-7-7-17-11-28-11h-288z m-419-419c-11 0-21 4-28 12-8 7-12 17-12 28v288c0 11 4 21 12 28 7 8 17 12 28 12h288c11 0 21-4 28-12 8-7 12-17 12-28v-288c0-11-4-21-12-28-7-8-17-12-28-12h-288z m564 0c-13 0-22 4-30 12-8 8-11 17-11 29v103h-104c-11 0-21 4-28 11-8 8-12 18-12 29 0 12 4 21 12 29 8 8 17 11 29 11h103v105c0 10 3 19 11 27 8 8 18 12 29 12 12 0 21-4 29-12 7-8 11-17 11-28v-104h105c10 0 19-4 27-12 8-8 12-17 12-27 0-12-4-22-12-30-8-8-17-11-28-11h-104v-104c0-11-4-21-12-28-8-8-17-12-27-12z m-104 706v-206h206v206h-206z m-419 0v-206h206v206h-206z m0-419v-206h206v206h-206z" horiz-adv-x="1000" />

<glyph glyph-name="mds_ic_date_range" unicode="&#xe83c;" d="M208-67c-23 0-42 8-58 25-17 16-25 36-25 59v583c0 23 8 43 25 59 16 16 35 24 58 24h42v42c0 12 4 22 12 30 8 8 18 12 30 12 12 0 21-4 29-12 8-8 12-18 12-30v-42h334v42c0 12 4 22 12 30 8 8 18 12 29 12 12 0 22-4 30-12 8-8 12-18 12-30v-42h42c23 0 42-8 59-24 16-16 24-36 24-59v-583c0-23-8-43-24-59-17-17-36-25-59-25h-584z m0 84h584v416h-584v-416z m0 500h584v83h-584v-83z m292-250c-12 0-22 4-30 12-8 8-12 18-12 29 0 12 4 22 12 30 8 8 18 12 30 12 12 0 22-4 30-12 8-8 12-18 12-30 0-11-4-21-12-29-8-8-18-12-30-12z m-167 0c-11 0-21 4-29 12-8 8-12 18-12 29 0 12 4 22 12 30 8 8 18 12 29 12 12 0 22-4 30-12 8-8 12-18 12-30 0-11-4-21-12-29-8-8-18-12-30-12z m334 0c-12 0-22 4-30 12-8 8-12 18-12 29 0 12 4 22 12 30 8 8 18 12 30 12 12 0 21-4 29-12 8-8 12-18 12-30 0-11-4-21-12-29-8-8-17-12-29-12z" horiz-adv-x="1000" />

<glyph glyph-name="mds_ic_date_range_final" unicode="&#xe83d;" d="M470 279c8-8 18-12 30-12 12 0 22 4 30 12 8 8 12 18 12 29 0 12-4 22-12 30-8 8-18 12-30 12-12 0-22-4-30-12-8-8-12-18-12-30 0-11 4-21 12-29z m-166 0c8-8 18-12 29-12 12 0 22 4 30 12 8 8 12 18 12 29 0 12-4 22-12 30-8 8-18 12-30 12-11 0-21-4-29-12-8-8-12-18-12-30 0-11 4-21 12-29z m333 0c8-8 18-12 30-12 12 0 21 4 29 12 8 8 12 18 12 29 0 12-4 22-12 30-8 8-17 12-29 12-12 0-22-4-30-12-8-8-12-18-12-30 0-11 4-21 12-29z m-12-221v125h-250v-125h250z m-475-100c16-17 35-25 58-25h584c23 0 42 8 59 25 16 16 24 36 24 59v583c0 23-8 43-24 59-17 16-36 24-59 24h-42v42c0 12-4 22-12 30-8 8-18 12-30 12-11 0-21-4-29-12-8-8-12-18-12-30v-42h-334v42c0 12-4 22-12 30-8 8-17 12-29 12-12 0-22-4-30-12-8-8-12-18-12-30v-42h-42c-23 0-42-8-58-24-17-16-25-36-25-59v-583c0-23 8-43 25-59z m642 475v-416h-584v416h584z m0 84h-584v83h584v-83z" horiz-adv-x="1000" />

<glyph glyph-name="mds_ic_delete_bin" unicode="&#xe83e;" d="M292-25c-23 0-43 8-59 24-16 17-25 36-25 59v542c-11 0-21 4-29 12-8 8-12 18-12 30 0 12 4 21 12 29 8 8 18 12 29 12h167c0 12 4 22 12 30 8 8 18 12 30 12h166c12 0 22-4 30-12 8-8 12-18 12-30h167c12 0 21-4 29-12 8-8 12-17 12-29 0-12-4-22-12-30-8-8-17-12-29-12v-542c0-23-8-42-25-59-16-16-36-24-59-24h-416z m125 167c12 0 21 4 29 12 8 8 12 18 12 29v292c0 12-4 22-12 30-8 8-17 12-29 12-12 0-22-4-30-12-8-8-12-18-12-30v-292c0-11 4-21 12-29 8-8 18-12 30-12z m166 0c12 0 22 4 30 12 8 8 12 18 12 29v292c0 12-4 22-12 30-8 8-18 12-30 12-11 0-21-4-29-12-8-8-12-18-12-30v-292c0-11 4-21 12-29 8-8 18-12 29-12z" horiz-adv-x="1000" />

<glyph glyph-name="mds_ic_delete_bin_outline" unicode="&#xe83f;" d="M292-25c-23 0-43 8-59 24-16 17-25 36-25 59v542c-11 0-21 4-29 12-8 8-12 18-12 30 0 12 4 21 12 29 8 8 18 12 29 12h167c0 12 4 22 12 30 8 8 18 12 30 12h166c12 0 22-4 30-12 8-8 12-18 12-30h167c12 0 21-4 29-12 8-8 12-17 12-29 0-12-4-22-12-30-8-8-17-12-29-12v-542c0-23-8-42-25-59-16-16-36-24-59-24h-416z m416 625h-416v-542h416v542z m-291-458c12 0 21 4 29 12 8 8 12 18 12 29v292c0 12-4 22-12 30-8 8-17 12-29 12-12 0-22-4-30-12-8-8-12-18-12-30v-292c0-11 4-21 12-29 8-8 18-12 30-12z m166 0c12 0 22 4 30 12 8 8 12 18 12 29v292c0 12-4 22-12 30-8 8-18 12-30 12-11 0-21-4-29-12-8-8-12-18-12-30v-292c0-11 4-21 12-29 8-8 18-12 29-12z" horiz-adv-x="1000" />

<glyph glyph-name="mds_ic_devices" unicode="&#xe840;" d="M146 17c-17 0-32 6-44 18-13 12-19 27-19 44 0 18 6 32 19 44 12 13 27 19 44 19h21v458c0 23 8 43 24 59 17 16 36 24 59 24h583c12 0 22-4 30-12 8-8 12-17 12-29 0-12-4-22-12-30-8-8-18-12-30-12h-583v-458h188c17 0 32-6 44-19 12-12 18-26 18-44 0-17-6-32-18-44-12-12-27-18-44-18h-292z m479 0c-12 0-22 4-30 12-8 8-12 18-12 29v417c0 12 4 22 12 30 8 8 18 12 30 12h250c12 0 22-4 30-12 8-8 12-18 12-30v-417c0-11-4-21-12-29-8-8-18-12-30-12h-250z m42 125h166v291h-166v-291z" horiz-adv-x="1000" />

<glyph glyph-name="mds_ic_doc_check" unicode="&#xe841;" d="M250-67c-23 0-42 8-59 25-16 16-24 36-24 59v666c0 23 8 43 24 59 17 17 36 25 59 25h299c11 0 22-2 32-7 10-4 19-10 26-17l202-202c8-8 14-17 18-27 4-10 6-21 6-32v-465c0-23-8-43-24-59-16-17-36-25-59-25h-500z m292 584c0-12 4-22 12-30 8-8 18-12 29-12h167l-208 208v-166z m-87-297l-58 58c-4 4-9 7-14 10-4 2-10 3-15 3-5 0-10-1-15-3-6-3-10-6-14-10-9-8-13-18-13-30 0-11 4-21 13-29l88-90c4-4 9-7 14-9 5-1 10-2 15-2 6 0 11 1 16 2 5 2 9 5 13 9l177 176c8 9 12 19 12 30 0 12-4 22-12 31-9 8-19 12-31 12-12 0-22-4-30-12l-146-146z" horiz-adv-x="1000" />

<glyph glyph-name="mds_ic_doc_check_outline" unicode="&#xe842;" d="M455 220l-58 58c-4 4-9 7-14 10-4 2-10 3-15 3-5 0-10-1-15-3-6-3-10-6-14-10-9-8-13-18-13-30 0-11 4-21 13-29l88-90c4-4 9-7 14-9 5-1 10-2 15-2 6 0 11 1 16 2 5 2 9 5 13 9l177 176c8 9 12 19 12 30 0 12-4 22-12 31-9 8-19 12-31 12-12 0-22-4-30-12l-146-146z m-205-287c-23 0-42 8-59 25-16 16-24 36-24 59v666c0 23 8 43 24 59 17 17 36 25 59 25h299c11 0 22-2 32-7 10-4 19-10 26-17l202-202c8-8 14-17 18-27 4-10 6-21 6-32v-465c0-23-8-43-24-59-16-17-36-25-59-25h-500z m292 584v166h-292v-666h500v458h-167c-11 0-21 4-29 12-8 8-12 18-12 30z" horiz-adv-x="1000" />

<glyph glyph-name="mds_ic_doc_file" unicode="&#xe843;" d="M391 99h250c12 0 22 4 30 12 8 8 12 18 12 29 0 12-4 22-12 30-8 8-18 12-30 12h-250c-11 0-21-4-29-12-8-8-12-18-12-30 0-11 4-21 12-29 8-8 18-12 29-12z m0 166h250c12 0 22 4 30 12 8 8 12 18 12 30 0 12-4 22-12 30-8 8-18 12-30 12h-250c-11 0-21-4-29-12-8-8-12-18-12-30 0-12 4-22 12-30 8-8 18-12 29-12z m-125-333c-23 0-42 8-58 25-17 16-25 35-25 58v667c0 23 8 43 25 59 16 16 35 24 58 24h299c11 0 22-2 32-6 10-4 19-10 27-17l202-203c7-7 13-16 17-26 5-10 7-21 7-32v-466c0-23-8-42-25-58-16-17-36-25-59-25h-500z m292 583c0-11 4-21 12-29 8-8 18-12 30-12h166l-208 208v-167z" horiz-adv-x="1000" />

<glyph glyph-name="mds_ic_doc_file_outline" unicode="&#xe844;" d="M375 100h250c12 0 22 4 30 12 8 8 12 18 12 30 0 12-4 21-12 29-8 8-18 12-30 12h-250c-12 0-22-4-30-12-8-8-12-17-12-29 0-12 4-22 12-30 8-8 18-12 30-12z m0 167h250c12 0 22 4 30 12 8 8 12 18 12 29 0 12-4 22-12 30-8 8-18 12-30 12h-250c-12 0-22-4-30-12-8-8-12-18-12-30 0-11 4-21 12-29 8-8 18-12 30-12z m-125-334c-23 0-42 8-59 25-16 16-24 36-24 59v666c0 23 8 43 24 59 17 17 36 25 59 25h299c11 0 22-2 32-7 10-4 19-10 26-17l202-202c8-8 14-17 18-27 4-10 6-21 6-32v-465c0-23-8-43-24-59-16-17-36-25-59-25h-500z m292 584v166h-292v-666h500v458h-167c-11 0-21 4-29 12-8 8-12 18-12 30z" horiz-adv-x="1000" />

<glyph glyph-name="mds_ic_donut_chart_fill_analysis" unicode="&#xe845;" d="M547 731c0 14 5 25 16 34 10 8 22 11 35 8 80-18 148-56 205-113 56-57 93-126 110-206 2-11 0-22-8-31-8-10-19-14-33-14h-241c-2 0-5 0-7 2-2 1-4 3-5 6-6 14-15 27-26 39-11 11-24 20-38 26-2 2-4 3-6 5-1 2-2 4-2 7v237z m-137-769c-93 21-170 69-231 144-60 75-90 162-90 261 0 98 30 185 90 260 61 74 138 123 231 145 13 4 26 1 37-9 11-9 17-21 17-36v-235c0-1-2-4-7-8-23-10-42-26-56-47-14-21-21-44-21-70 0-26 7-49 21-69 14-21 33-36 56-46 2 0 4-3 7-8v-238c0-14-6-26-17-36-11-9-24-12-37-8z m183-3c-12-2-22 0-32 8-9 8-14 19-14 31v243c0 3 1 5 2 7 2 2 4 4 6 5 14 7 27 15 38 26 11 11 20 24 26 38 1 1 4 4 11 8h242c13 0 23-5 31-15 9-11 11-23 9-36-18-80-55-148-113-205-57-56-126-93-206-110z" horiz-adv-x="1000" />

<glyph glyph-name="mds_ic_donut_chart_fill_analysis_outline" unicode="&#xe846;" d="M543 715c0 14 5 25 16 33 12 8 24 11 38 7 78-16 145-54 201-111 57-58 94-127 110-206 3-12 1-23-7-32-8-10-19-14-33-14h-241c-3 0-5 0-7 2-2 1-4 3-5 6-7 15-15 28-26 39-12 12-24 20-38 27-3 1-5 3-6 4-2 2-2 4-2 7v238z m83-57v-141c8-7 15-13 22-20 7-7 14-14 20-22h141c-16 42-41 79-72 110-32 32-69 57-111 73z m-221-713c-93 21-170 70-230 145-60 75-91 161-91 260 0 99 31 185 91 260 60 75 137 123 230 145 14 4 27 1 38-8 11-9 16-21 16-34v-238c0-1-2-3-6-8-23-10-42-25-56-47-14-21-21-44-21-70 0-26 7-49 21-69 14-21 33-36 56-46 2 0 4-3 6-8v-242c0-14-5-25-16-33-11-8-24-11-38-7z m-29 713c-63-24-114-64-151-120-38-57-57-119-57-188 0-69 19-131 57-187 37-57 88-98 151-123v143c-26 21-47 45-61 74-15 29-22 60-22 93 0 33 7 64 22 93 14 29 35 54 61 74v141z m221-713c-14-4-26-1-38 7-11 8-16 19-16 33v239c0 3 0 5 2 7 1 2 3 4 6 6 14 6 26 14 38 26 11 11 19 23 26 37 0 1 4 4 11 8h242c12 0 23-5 31-15 8-11 11-22 8-36-17-80-54-148-111-204-57-56-123-92-199-108z m71 280c-6-8-12-15-20-22-7-7-14-13-22-20v-141c42 16 79 41 111 73 31 32 56 68 72 110h-141z" horiz-adv-x="1000" />

<glyph glyph-name="mds_ic_donut_chart_line_analysis" unicode="&#xe847;" d="M500-67c-58 0-112 11-162 33-51 22-95 52-133 89-37 38-67 82-89 133-22 50-33 104-33 162 0 90 26 172 79 244 52 72 121 122 207 151 20 7 39 4 56-7 17-12 25-28 25-48 0-14-4-27-12-38-8-12-18-20-31-24-59-19-107-53-144-105-36-51-55-108-55-173 0-81 29-150 85-207 57-56 126-85 207-85 36 0 71 7 105 19 33 13 63 31 90 54 10 10 23 15 38 15 15 0 27-5 38-15 16-14 24-31 25-49 1-19-7-35-23-49-38-32-79-57-126-74-46-17-95-26-147-26z m292 417c0 64-19 121-55 172-37 51-86 87-145 106-13 4-23 12-31 24-8 11-12 24-12 38 0 20 9 36 26 48 17 11 35 14 55 7 87-29 157-80 209-152 52-72 78-153 78-243 0-12-1-25-2-38-1-13-3-27-6-42-3-20-13-35-30-43-17-9-36-10-56-2-13 5-23 14-31 27-7 12-9 26-7 40 3 12 4 22 5 31 1 9 2 18 2 27z" horiz-adv-x="1000" />

<glyph glyph-name="mds_ic_drag_handle" unicode="&#xe848;" d="M191 232c-13 0-23 4-32 13-8 8-12 19-12 31 0 12 4 22 12 30 9 9 19 13 32 13h619c12 0 23-4 31-13 8-8 13-18 13-31 0-12-5-22-13-30-8-9-19-13-31-13h-619z m0 149c-13 0-23 5-32 13-8 9-12 19-12 31 0 12 4 22 12 31 9 8 19 13 32 13h619c12 0 23-5 31-13 8-9 13-19 13-31 0-12-5-23-13-31-8-9-19-13-31-13h-619z" horiz-adv-x="1000" />

<glyph glyph-name="mds_ic_edit_pencil" unicode="&#xe849;" d="M148-43c-12 0-22 4-29 11-8 8-12 18-12 30v84c0 11 2 21 7 31 4 11 10 19 17 27l586 585c5 5 12 9 19 13 8 3 16 4 25 4 7 0 15-1 22-4 7-3 14-7 21-12l72-72c6-7 11-14 13-21 3-8 4-15 4-23 0-8-1-16-4-24-3-8-7-14-13-20l-586-585c-7-7-16-13-26-17-11-5-21-7-31-7h-85z m616 612l41 42-43 43-42-41 44-44z" horiz-adv-x="1000" />

<glyph glyph-name="mds_ic_edit_pencil_outline" unicode="&#xe84a;" d="M189 35h56l422 424-57 57-421-424v-57z m650 473l-179 180 47 46c17 17 37 25 61 25 24 0 45-9 62-26l56-57c18-17 26-37 25-60 0-24-9-44-26-61l-46-47z m-691-559c-13 0-24 4-33 13-9 9-13 20-13 33v113c0 7 1 13 3 18 2 6 5 11 10 15l498 498 178-179-496-498c-5-4-10-8-16-10-5-2-11-3-18-3h-113z m492 538l-30 29 57-57-27 28z" horiz-adv-x="1000" />

<glyph glyph-name="mds_ic_email" unicode="&#xe84b;" d="M167 17c-23 0-43 8-59 24-16 17-25 36-25 59v500c0 23 9 43 25 59 16 16 36 24 59 24h666c23 0 43-8 59-24 17-16 25-36 25-59v-500c0-23-8-42-25-59-16-16-36-24-59-24h-666z m333 299c4 0 7 0 11 1 4 1 7 3 11 5l295 184c5 4 9 8 12 13 3 6 4 11 4 18 0 13-6 24-17 31-12 7-24 6-37-1l-279-175-279 175c-13 7-25 8-37 0-11-7-17-17-17-30 0-7 1-14 4-19 3-5 7-9 12-12l295-184c4-2 7-4 11-5 4-1 8-1 11-1z" horiz-adv-x="1000" />

<glyph glyph-name="mds_ic_email_outline" unicode="&#xe84c;" d="M167 17c-23 0-43 8-59 24-16 17-25 36-25 59v500c0 23 9 43 25 59 16 16 36 24 59 24h666c23 0 43-8 59-24 17-16 25-36 25-59v-500c0-23-8-42-25-59-16-16-36-24-59-24h-666z m666 500l-311-195c-4-2-7-4-11-5-4-1-7-1-11-1-3 0-7 0-11 1-4 1-7 3-11 5l-311 195v-417h666v417z m-333-125l333 208h-666l333-208z m-333 114v62-1 0-61z" horiz-adv-x="1000" />

<glyph glyph-name="mds_ic_error" unicode="&#xe84d;" d="M500 142c12 0 22 4 30 12 8 8 12 18 12 29 0 12-4 22-12 30-8 8-18 12-30 12-12 0-22-4-30-12-8-8-12-18-12-30 0-11 4-21 12-29 8-8 18-12 30-12z m0 166c12 0 22 4 30 12 8 8 12 18 12 30v167c0 12-4 21-12 29-8 8-18 12-30 12-12 0-22-4-30-12-8-8-12-17-12-29v-167c0-12 4-22 12-30 8-8 18-12 30-12z m0-375c-58 0-112 11-162 33-51 22-95 52-133 89-37 38-67 82-89 133-22 50-33 104-33 162 0 58 11 112 33 163 22 50 52 94 89 132 38 37 82 67 133 89 50 22 104 33 162 33 58 0 112-11 163-33 50-22 94-52 132-89 37-38 67-82 89-132 22-51 33-105 33-163 0-58-11-112-33-162-22-51-52-95-89-133-38-37-82-67-132-89-51-22-105-33-163-33z" horiz-adv-x="1000" />

<glyph glyph-name="mds_ic_error_outline" unicode="&#xe84e;" d="M514 159c12 0 22 4 30 12 8 8 12 18 12 29 0 12-4 22-12 30-8 8-18 12-30 12-12 0-22-4-30-12-8-8-12-18-12-30 0-11 4-21 12-29 8-8 18-12 30-12z m0 166c12 0 22 4 30 12 8 8 12 18 12 30v167c0 12-4 22-12 29-8 8-18 12-30 12-12 0-22-4-30-12-8-7-12-17-12-29v-167c0-12 4-22 12-30 8-8 18-12 30-12z m0-375c-58 0-112 11-163 33-50 22-94 52-132 89-37 38-67 82-89 133-22 50-33 105-33 162 0 58 11 112 33 163 22 50 52 94 89 132 38 37 82 67 132 89 51 22 105 33 163 33 58 0 112-11 162-33 51-22 95-52 133-89 37-38 67-82 89-132 22-51 33-105 33-163 0-57-11-112-33-162-22-51-52-95-89-133-38-37-82-67-133-89-50-22-104-33-162-33z m0 84c93 0 172 32 236 97 65 64 97 143 97 236 0 93-32 172-97 237-64 64-143 96-236 96-93 0-172-32-237-96-64-65-96-144-96-237 0-93 32-172 96-236 65-65 144-97 237-97z" horiz-adv-x="1000" />

<glyph glyph-name="mds_ic_exit_to_app" unicode="&#xe84f;" d="M208-25c-23 0-42 8-58 24-17 17-25 36-25 59v125c0 12 4 22 12 30 8 8 18 12 30 12 12 0 21-4 29-12 8-8 12-18 12-30v-125h584v584h-584v-125c0-12-4-22-12-30-8-8-17-12-29-12-12 0-22 4-30 12-8 8-12 18-12 30v125c0 23 8 42 25 59 16 16 35 24 58 24h584c23 0 42-8 59-24 16-17 24-36 24-59v-584c0-23-8-42-24-59-17-16-36-24-59-24h-584z m277 333h-318c-12 0-22 4-30 12-8 8-12 18-12 30 0 12 4 22 12 30 8 8 18 12 30 12h318l-77 77c-8 8-12 18-12 29 1 11 5 21 12 29 9 8 19 13 30 13 12 1 21-3 30-12l149-149c4-4 7-8 9-13 1-5 2-10 2-16 0-6-1-11-2-16-2-4-5-9-9-13l-149-149c-9-8-18-12-30-12-11 0-21 5-30 13-7 8-11 18-12 29 0 11 4 21 12 29l77 77z" horiz-adv-x="1000" />

<glyph glyph-name="mds_ic_explore" unicode="&#xe850;" d="M500 308c-12 0-22 4-30 12-8 8-12 18-12 30 0 12 4 22 12 30 8 8 18 12 30 12 12 0 22-4 30-12 8-8 12-18 12-30 0-12-4-22-12-30-8-8-18-12-30-12z m0-375c-58 0-112 11-162 33-51 22-95 52-133 89-37 38-67 82-89 133-22 50-33 104-33 162 0 58 11 112 33 163 22 50 52 94 89 132 38 37 82 67 133 89 50 22 104 33 162 33 58 0 112-11 163-33 50-22 94-52 132-89 37-38 67-82 89-132 22-51 33-105 33-163 0-58-11-112-33-162-22-51-52-95-89-133-38-37-82-67-132-89-51-22-105-33-163-33z m0 84c93 0 172 32 237 97 64 64 96 143 96 236 0 93-32 172-96 237-65 64-144 96-237 96-93 0-172-32-236-96-65-65-97-144-97-237 0-93 32-172 97-236 64-65 143-97 236-97z m0 0c-93 0-172 32-236 97-65 64-97 143-97 236 0 93 32 172 97 237 64 64 143 96 236 96 93 0 172-32 237-96 64-65 96-144 96-237 0-93-32-172-96-236-65-65-144-97-237-97z m70 243c4 3 8 5 11 9 4 3 7 7 9 11l122 261c3 7 2 13-3 18-5 5-11 6-18 3l-261-122c-4-2-8-5-11-9-4-3-6-7-9-11l-121-261c-4-7-3-13 2-18 5-5 11-6 18-2l261 121z" horiz-adv-x="1000" />

<glyph glyph-name="mds_ic_explore_outline" unicode="&#xe851;" d="M500 308c-12 0-22 4-30 12-8 8-12 18-12 30 0 12 4 22 12 30 8 8 18 12 30 12 12 0 22-4 30-12 8-8 12-18 12-30 0-12-4-22-12-30-8-8-18-12-30-12z m0-375c-58 0-112 11-162 33-51 22-95 52-133 89-37 38-67 82-89 133-22 50-33 104-33 162 0 58 11 112 33 163 22 50 52 94 89 132 38 37 82 67 133 89 50 22 104 33 162 33 58 0 112-11 163-33 50-22 94-52 132-89 37-38 67-82 89-132 22-51 33-105 33-163 0-58-11-112-33-162-22-51-52-95-89-133-38-37-82-67-132-89-51-22-105-33-163-33z m0 84c93 0 172 32 237 97 64 64 96 143 96 236 0 93-32 172-96 237-65 64-144 96-237 96-93 0-172-32-236-96-65-65-97-144-97-237 0-93 32-172 97-236 64-65 143-97 236-97z m-191 122l261 121c4 3 8 5 11 9 4 3 7 7 9 11l122 261c3 7 2 13-3 18-5 5-11 6-18 3l-261-122c-4-2-8-5-11-9-4-3-6-7-9-11l-121-261c-4-7-3-13 2-18 5-5 11-6 18-2z" horiz-adv-x="1000" />

<glyph glyph-name="mds_ic_extension_outline" unicode="&#xe852;" d="M367-25h-159c-23 0-42 8-58 24-17 17-25 36-25 59v159c33 0 63 10 88 31 25 22 37 49 37 81 0 33-12 60-37 81-25 21-55 32-88 32v158c0 23 8 43 25 59 16 16 35 24 58 24h167c0 30 10 54 30 74 20 20 45 31 74 31 29 0 54-11 74-31 20-20 30-44 30-74h167c23 0 43-8 59-24 16-16 24-36 24-59v-167c30 0 54-10 74-30 20-20 31-45 31-74 0-29-11-54-31-74-20-20-44-30-74-30v-167c0-23-8-42-24-59-16-16-36-24-59-24h-158c0 35-11 64-33 89-22 24-49 36-80 36-31 0-58-12-79-36-22-25-33-54-33-89z m-159 83h89c17 46 43 79 80 97 37 19 71 28 102 28 31 0 65-9 102-28 37-18 64-51 81-97h88v250h83c6 0 11 2 15 7 4 4 6 9 6 14 0 6-2 11-6 15-4 4-9 6-15 6h-83v250h-250v83c0 6-2 11-6 15-4 4-9 6-15 6-5 0-10-2-14-6-5-4-7-9-7-15v-83h-250v-92c38-14 68-37 91-69 23-33 34-70 34-110 0-39-11-75-34-108-23-33-53-56-91-71v-92z" horiz-adv-x="1000" />

<glyph glyph-name="mds_ic_favorite" unicode="&#xe853;" d="M500-12c-10 0-20 2-30 6-10 3-19 9-26 16l-72 66c-74 67-140 134-200 201-59 66-89 139-89 219 0 65 22 120 66 163 44 44 98 66 164 66 36 0 71-8 104-23 32-16 60-37 83-64 23 27 51 48 83 64 33 15 68 23 105 23 65 0 119-22 163-66 44-43 66-98 66-163 0-80-30-153-89-220-59-67-126-134-201-201l-71-65c-7-7-16-13-26-16-10-4-20-6-30-6z" horiz-adv-x="1000" />

<glyph glyph-name="mds_ic_favorite_outline" unicode="&#xe854;" d="M500-12c-10 0-20 2-30 6-10 3-19 9-26 16l-72 66c-74 67-140 134-200 201-59 66-89 139-89 219 0 65 22 120 66 163 44 44 98 66 164 66 36 0 71-8 104-23 32-16 60-37 83-64 23 27 51 48 83 64 33 15 68 23 105 23 65 0 119-22 163-66 44-43 66-98 66-163 0-80-30-153-89-220-59-67-126-134-201-201l-71-65c-7-7-16-13-26-16-10-4-20-6-30-6z m-40 566c-20 29-41 50-64 65-23 15-51 23-83 23-42 0-77-14-105-42-27-28-41-62-41-104 0-36 13-75 38-115 26-41 57-80 92-118 36-39 73-74 111-108 38-33 68-61 92-82 24 21 54 49 92 82 38 34 75 69 111 108 35 38 66 77 92 118 26 40 38 79 38 115 0 42-14 76-41 104-28 28-63 42-104 42-33 0-61-8-84-23-23-15-44-36-64-65-5-7-11-12-18-15-7-4-14-6-22-6-8 0-15 2-22 6-7 3-13 8-18 15z" horiz-adv-x="1000" />

<glyph glyph-name="mds_ic_fd_filled" unicode="&#xe855;" d="M828 767c30 0 56-11 78-32v0c21-21 32-47 32-78v-614c0-30-11-57-32-78-22-21-48-32-78-32h-656c-30 0-56 11-78 32-21 21-32 48-32 78v136h125v92h-125v158h125v92h-125v136c0 30 11 56 32 78 22 21 48 32 78 32h656z m-307-584c92 0 166 75 166 167 0 92-74 167-166 167-92 0-167-75-167-167 0-92 75-167 167-167z" horiz-adv-x="1000" />

<glyph glyph-name="mds_ic_fd_outline" unicode="&#xe856;" d="M521 554c-113 0-204-91-204-204 0-112 91-204 204-204 112 0 204 92 204 204 0 113-92 204-204 204z m-129-204c0 72 57 129 129 129 71 0 129-57 129-129 0-71-58-129-129-129-72 0-129 58-129 129z m436 417c30 0 56-11 77-32v0c22-21 33-47 33-78v-614c0-30-11-56-33-78-21-21-47-32-77-32h-656c-30 0-56 11-77 32-22 22-32 48-32 78v614c0 30 10 56 32 78 21 21 47 32 77 32h656z m-669-588h112v92h-112v158h112v92h-112v150h682l0-1v-640h-682v149z" horiz-adv-x="1000" />

<glyph glyph-name="mds_ic_file_download" unicode="&#xe857;" d="M500 201c-6 0-11 1-16 3-4 1-9 4-13 9l-150 150c-8 8-12 18-12 29 0 11 4 21 12 29 8 8 18 13 30 13 11 0 21-4 29-12l78-78v298c0 12 4 21 12 29 8 8 18 12 30 12 12 0 22-4 30-12 8-8 12-17 12-29v-298l78 78c8 8 18 12 30 12 11 0 21-5 29-13 8-8 12-18 12-29 1-11-3-21-12-29l-150-150c-4-5-8-8-13-9-5-2-10-3-16-3z m-250-184c-23 0-42 8-59 24-16 17-24 36-24 59v83c0 12 4 22 12 30 8 8 18 12 29 12 12 0 22-4 30-12 8-8 12-18 12-30v-83h500v83c0 12 4 22 12 30 8 8 18 12 30 12 12 0 21-4 29-12 8-8 12-18 12-30v-83c0-23-8-42-24-59-16-16-36-24-59-24h-500z" horiz-adv-x="1000" />

<glyph glyph-name="mds_ic_file_upload" unicode="&#xe858;" d="M458 356l-78-78c-8-8-18-12-29-12-12 1-22 5-30 13-8 9-12 18-12 29 0 11 4 21 12 30l150 150c4 4 9 7 13 8 5 2 10 3 16 3 6 0 11-1 16-3 5-1 9-4 13-8l150-150c9-9 13-19 12-30 0-11-4-20-12-29-8-8-18-12-29-13-12 0-22 4-30 12l-78 78v-298c0-11-4-21-12-29-8-8-18-12-30-12-12 0-22 4-30 12-8 8-12 18-12 29v298z m-291 161v83c0 23 8 43 24 59 17 16 36 24 59 24h500c23 0 43-8 59-24 16-16 24-36 24-59v-83c0-12-4-22-12-30-8-8-17-12-29-12-12 0-22 4-30 12-8 8-12 18-12 30v83h-500v-83c0-12-4-22-12-30-8-8-18-12-30-12-11 0-21 4-29 12-8 8-12 18-12 30z" horiz-adv-x="1000" />

<glyph glyph-name="mds_ic_filter" unicode="&#xe859;" d="M458 100c-11 0-21 4-29 12-8 8-12 18-12 30 0 12 4 21 12 29 8 8 18 12 29 12h84c12 0 21-4 29-12 8-8 12-17 12-29 0-12-4-22-12-30-8-8-17-12-29-12h-84z m-166 208c-12 0-22 4-30 12-8 8-12 18-12 30 0 12 4 22 12 30 8 8 18 12 30 12h416c12 0 22-4 30-12 8-8 12-18 12-30 0-12-4-22-12-30-8-8-18-12-30-12h-416z m-125 209c-12 0-22 4-30 12-8 8-12 18-12 29 0 12 4 22 12 30 8 8 18 12 30 12h666c12 0 22-4 30-12 8-8 12-18 12-30 0-11-4-21-12-29-8-8-18-12-30-12h-666z" horiz-adv-x="1000" />

<glyph glyph-name="mds_ic_filter_customize" unicode="&#xe85a;" d="M500-25c-12 0-22 4-30 12-8 8-12 18-12 30v166c0 12 4 22 12 30 8 8 18 12 30 12 12 0 22-4 30-12 8-8 12-18 12-30v-41h291c12 0 22-4 30-12 8-8 12-18 12-30 0-12-4-22-12-30-8-8-18-12-30-12h-291v-41c0-12-4-22-12-30-8-8-18-12-30-12z m-333 83c-12 0-22 4-30 12-8 8-12 18-12 30 0 12 4 22 12 30 8 8 18 12 30 12h166c12 0 22-4 30-12 8-8 12-18 12-30 0-12-4-22-12-30-8-8-18-12-30-12h-166z m166 167c-11 0-21 4-29 12-8 8-12 18-12 30v41h-125c-12 0-22 4-30 12-8 8-12 18-12 30 0 12 4 22 12 30 8 8 18 12 30 12h125v41c0 12 4 22 12 30 8 8 18 12 29 12 12 0 22-4 30-12 8-8 12-18 12-30v-166c0-12-4-22-12-30-8-8-18-12-30-12z m167 83c-12 0-22 4-30 12-8 8-12 18-12 30 0 12 4 22 12 30 8 8 18 12 30 12h333c12 0 22-4 30-12 8-8 12-18 12-30 0-12-4-22-12-30-8-8-18-12-30-12h-333z m167 167c-12 0-22 4-30 12-8 8-12 18-12 30v166c0 12 4 22 12 30 8 8 18 12 30 12 12 0 21-4 29-12 8-8 12-18 12-30v-41h125c12 0 22-4 30-12 8-8 12-18 12-30 0-12-4-22-12-30-8-8-18-12-30-12h-125v-41c0-12-4-22-12-30-8-8-17-12-29-12z m-500 83c-12 0-22 4-30 12-8 8-12 18-12 30 0 12 4 22 12 30 8 8 18 12 30 12h333c12 0 22-4 30-12 8-8 12-18 12-30 0-12-4-22-12-30-8-8-18-12-30-12h-333z" horiz-adv-x="1000" />

<glyph glyph-name="mds_ic_fingerprint_kyc" unicode="&#xe85b;" d="M138 436c-6 4-10 10-12 17-2 7 0 14 4 20 43 61 97 109 162 142 66 34 136 51 210 51 74 0 143-16 208-48 65-32 119-78 162-138 6-8 8-16 6-23-2-7-6-13-12-18-6-4-12-6-19-5-8 0-14 4-19 12-36 53-84 93-142 121-57 28-119 42-184 42-65 1-126-13-183-41-58-29-104-69-140-123-6-8-13-13-21-14-7 0-14 1-20 5z m489-517c-80 17-143 54-188 110-46 57-69 124-69 203 0 38 13 69 39 95 26 25 57 38 94 38 36 0 67-12 93-37 26-25 39-56 39-92 0-21 7-39 22-54 15-15 34-22 55-22 21 0 39 7 53 22 15 15 22 33 22 54 0 77-28 143-83 196-56 53-123 79-202 79-78 0-145-27-200-81-55-54-82-120-82-197 0-24 1-47 5-71 3-23 9-48 18-74 3-8 3-16 0-23-3-6-8-11-15-14-8-3-16-3-22 1-7 3-12 9-16 17-9 23-16 48-20 75-5 27-7 57-7 88 0 94 33 174 99 238 66 64 146 97 240 97 94 0 175-32 241-96 67-64 100-142 100-235 0-37-13-68-38-93-26-26-57-38-93-38-37 0-68 12-94 36-26 25-40 55-40 91 0 22-7 40-22 55-14 15-32 22-53 22-22 0-40-7-54-22-15-15-22-33-22-55 0-66 19-121 56-167 38-45 91-75 160-91 8-2 14-6 17-13 3-6 3-13 1-20-1-6-5-12-11-17-5-5-13-6-23-5z m-355 734c-8-4-16-6-24-4-7 2-13 7-17 14-3 6-4 13-2 20 3 7 7 13 14 17 40 23 82 40 126 51 44 10 88 16 134 16 45 0 89-6 132-16 42-11 84-27 124-47 8-5 13-11 15-18 2-7 1-14-2-20-3-6-8-11-15-15-7-3-14-2-23 2-36 19-73 34-113 43-39 10-78 15-118 15-41 0-80-5-119-14-40-10-77-24-112-44z m117-714c-41 42-72 87-92 133-20 47-30 101-30 160 0 66 23 121 69 166 46 46 101 68 167 68 65 0 120-22 167-67 46-44 70-99 70-163 0-9-3-16-8-22-4-6-11-9-20-9-9 0-16 3-21 9-5 6-8 13-8 22 0 49-17 90-53 124-35 34-78 50-127 50-50 0-93-17-128-51-35-35-52-77-52-127 0-53 8-99 26-138 17-39 44-78 81-117 6-6 8-13 9-20 0-7-2-13-7-19-6-6-13-9-21-9-9 1-16 4-22 10z m327 67c-66 0-123 20-171 61-47 40-71 96-71 168 0 8 3 15 8 20 5 6 12 9 20 9 9 0 16-3 21-9 5-5 7-12 7-20 0-55 18-98 55-128 36-30 80-45 131-45 6 0 13 1 21 2 8 1 16 2 24 2 8 1 15-1 20-5 6-5 9-11 10-19 0-8-2-14-6-19-4-4-9-8-16-10-11-3-21-6-31-6-9-1-17-1-22-1z" horiz-adv-x="1000" />

<glyph glyph-name="mds_ic_flash_lightning_bolt" unicode="&#xe85c;" d="M439-39c-7 2-12 6-16 11-4 6-6 12-6 20v233h-42c-23 0-42 8-59 25-16 16-24 35-24 58v334c0 23 8 42 24 59 17 16 36 24 59 24h244c22 0 40-9 53-26 14-17 18-36 12-57l-59-209h47c25 0 43-11 56-33 12-22 11-44-4-65l-250-361c-4-6-10-11-16-13-7-2-13-2-19 0z" horiz-adv-x="1000" />

<glyph glyph-name="mds_ic_flash_lightning_bolt_outline" unicode="&#xe85d;" d="M500 158l133 192h-118l83 292h-223v-334h125v-150z m224 177l-250-361c-4-6-10-11-16-13-7-2-13-2-19 0-7 2-12 6-16 11-4 6-6 12-6 20v233h-42c-23 0-42 8-59 25-16 16-24 35-24 58v334c0 23 8 42 24 59 17 16 36 24 59 24h244c22 0 40-9 53-26 14-17 18-36 12-57l-59-209h47c25 0 43-11 56-33 12-22 11-44-4-65z" horiz-adv-x="1000" />

<glyph glyph-name="mds_ic_folded_arrow" unicode="&#xe85e;" d="M692 249l-121 121c-8 8-12 18-12 29 0 11 4 21 12 29 8 9 18 13 29 13 11 1 21-3 29-12l193-192c4-5 7-9 9-14 2-5 2-10 2-16 0-5 0-10-2-15-2-5-5-10-9-14l-191-191c-8-8-18-12-29-12-12 0-22 4-30 12-8 9-13 19-13 30 0 11 5 21 13 29l120 120-383 0c-22 0-42 8-58 24-17 16-25 36-25 59l0 375c0 12 4 22 12 30 8 8 18 12 30 12 12 0 21-4 29-12 8-8 12-18 12-30l0-375 383 0z" horiz-adv-x="1000" />

<glyph glyph-name="mds_ic_fullscreen" unicode="&#xe85f;" d="M208 58h84c12 0 21-4 29-12 8-8 12-17 12-29 0-12-4-22-12-30-8-8-17-12-29-12h-125c-12 0-22 4-30 12-8 8-12 18-12 30v125c0 12 4 21 12 29 8 8 18 12 30 12 12 0 21-4 29-12 8-8 12-17 12-29v-84z m584 0v84c0 12 4 21 12 29 8 8 18 12 29 12 12 0 22-4 30-12 8-8 12-17 12-29v-125c0-12-4-22-12-30-8-8-18-12-30-12h-125c-11 0-21 4-29 12-8 8-12 18-12 30 0 12 4 21 12 29 8 8 18 12 29 12h84z m-584 584v-84c0-11-4-21-12-29-8-8-17-12-29-12-12 0-22 4-30 12-8 8-12 18-12 29v125c0 12 4 22 12 30 8 8 18 12 30 12h125c12 0 21-4 29-12 8-8 12-18 12-30 0-11-4-21-12-29-8-8-17-12-29-12h-84z m584 0h-84c-11 0-21 4-29 12-8 8-12 18-12 29 0 12 4 22 12 30 8 8 18 12 29 12h125c12 0 22-4 30-12 8-8 12-18 12-30v-125c0-11-4-21-12-29-8-8-18-12-30-12-11 0-21 4-29 12-8 8-12 18-12 29v84z" horiz-adv-x="1000" />

<glyph glyph-name="mds_ic_gift" unicode="&#xe860;" d="M167 142v-84h666v84h-666z m0 458h91c-3 6-5 13-6 20-1 7-2 14-2 22 0 34 12 64 37 88 24 25 53 37 88 37 21 0 40-6 58-16 18-11 33-25 46-41l21-27 21 27c12 17 28 31 46 41 18 11 37 16 58 16 35 0 64-12 89-37 24-24 36-54 36-88 0-8 0-15-2-22-1-7-3-14-6-20h91c23 0 43-8 59-24 17-17 25-36 25-59v-459c0-23-8-42-25-59-16-16-36-24-59-24h-666c-23 0-43 8-59 24-16 17-25 36-25 59v459c0 23 9 42 25 59 16 16 36 24 59 24z m0-333h666v250h-212l62-86c7-9 10-20 9-30-2-11-7-20-17-27-10-7-20-10-31-8-10 2-19 7-26 16l-118 160-118-160c-7-9-15-14-26-16-11-2-21 1-31 8-10 7-15 16-17 27-2 10 1 21 8 30l61 86h-210v-250z m208 333c12 0 22 4 30 12 8 8 12 18 12 30 0 12-4 21-12 29-8 8-18 12-30 12-12 0-22-4-30-12-8-8-12-17-12-29 0-12 4-22 12-30 8-8 18-12 30-12z m250 0c12 0 22 4 30 12 8 8 12 18 12 30 0 12-4 21-12 29-8 8-18 12-30 12-12 0-22-4-30-12-8-8-12-17-12-29 0-12 4-22 12-30 8-8 18-12 30-12z" horiz-adv-x="1000" />

<glyph glyph-name="mds_ic_group_outline" unicode="&#xe861;" d="M42 133c0 24 6 46 18 65 12 20 28 35 48 46 43 21 87 37 132 48 44 11 89 16 135 16 46 0 91-5 135-16 45-11 89-27 132-48 20-11 36-26 48-46 12-19 18-41 18-65v-33c0-23-8-42-24-59-16-16-36-24-59-24h-500c-23 0-42 8-59 24-16 17-24 36-24 59v33z m833-116h-106c7 12 13 26 17 40 4 14 6 28 6 43v42c0 30-9 60-26 88-17 28-41 52-72 72 35-4 69-11 100-21 31-10 60-23 87-37 25-14 44-30 58-47 13-17 19-35 19-55v-42c0-23-8-42-24-59-16-16-36-24-59-24z m-500 333c-46 0-85 16-118 49-32 33-49 72-49 118 0 46 17 85 49 117 33 33 72 49 118 49 46 0 85-16 118-49 32-32 49-71 49-117 0-46-17-85-49-118-33-33-72-49-118-49z m417 167c0-46-17-85-49-118-33-33-72-49-118-49-8 0-17 1-29 3-12 1-22 3-29 5 18 23 33 47 43 74 10 27 15 56 15 85 0 29-5 57-15 84-10 27-25 52-43 74 9 4 19 6 29 7 10 1 19 1 29 1 46 0 85-16 118-49 32-32 49-71 49-117z m-667-417h500v33c0 8-2 15-6 21-4 6-9 11-15 15-37 19-75 33-113 42-39 9-77 14-116 14-39 0-77-5-116-14-38-9-76-23-113-42-6-4-11-9-15-15-4-6-6-13-6-21v-33z m250 333c23 0 43 9 59 25 16 16 24 36 24 59 0 23-8 42-24 59-16 16-36 24-59 24-23 0-42-8-59-24-16-17-24-36-24-59 0-23 8-43 24-59 17-16 36-25 59-25z" horiz-adv-x="1000" />

<glyph glyph-name="mds_ic_groww" unicode="&#xe862;" d="M902 463c-7 30-18 60-32 87 0 0 0 0 0 0-1 2-2 4-3 5 0 1 0 2-1 3-1 2-2 3-3 5 0 1 0 2-1 2-1 2-2 4-3 5 0 1-1 2-1 3-1 1-2 3-3 5 0 0-1 1-1 2-1 2-2 3-3 5-1 1-1 1-2 2-1 2-2 3-3 5 0 1-1 1-2 2-1 2-2 3-3 5 0 0-1 1-1 2-1 2-2 3-3 4-1 1-2 2-2 3-1 1-2 3-3 4-1 1-2 2-2 2-1 2-2 3-4 5 0 0-1 1-1 2-1 1-3 3-4 4 0 1-1 2-2 2-1 2-2 3-3 5-1 0-1 1-2 2-1 1-2 2-4 4 0 0-1 1-2 2-1 1-2 3-3 4-1 1-1 1-2 2-1 1-3 3-4 4-1 1-1 1-2 2-1 1-2 2-4 4 0 0-1 1-2 2-1 1-2 2-4 3 0 1-1 2-2 2-1 2-2 3-4 4 0 1-1 1-2 2-1 1-2 2-4 3-1 1-1 2-2 2-1 2-3 3-4 4-1 0-2 1-2 2-2 1-3 2-4 3-1 1-2 1-3 2-1 1-2 2-4 3-1 1-2 1-2 2-2 1-3 2-4 3-1 1-2 1-3 2-1 1-3 2-4 3-1 0-2 1-3 2-1 1-2 1-4 2-1 1-2 2-3 2-1 1-2 2-4 3-1 0-1 1-2 2-2 1-3 1-5 2 0 1-1 1-2 2-2 1-3 2-5 2-1 1-2 2-3 2-1 1-2 2-4 3-1 0-2 1-3 1-1 1-2 2-4 2-1 1-2 2-3 2-1 1-3 2-4 2-1 1-2 1-3 2-2 1-3 1-4 2-2 0-3 1-4 1-1 1-2 2-4 2-1 1-2 1-3 2-2 1-3 1-4 2-1 0-3 1-4 1-1 1-3 1-4 2-1 0-2 1-3 1-2 1-3 1-5 2-1 0-2 1-3 1-1 1-3 1-4 2-1 0-3 1-4 1-1 1-3 1-4 2-1 0-2 0-4 1-1 0-2 1-4 1-1 1-2 1-4 1-1 1-2 1-4 2-1 0-2 0-3 1-2 0-3 0-5 1-1 0-2 1-3 1-2 0-3 1-5 1-1 0-2 1-4 1-1 0-2 1-4 1-1 0-2 0-4 1-1 0-2 0-4 1-1 0-2 0-4 0-1 1-3 1-4 1-1 0-3 1-4 1-1 0-3 0-4 1-2 0-3 0-4 0-2 1-3 1-5 1-1 0-2 0-3 0-2 1-3 1-5 1-1 0-2 0-4 0-1 1-3 1-4 1-1 0-3 0-4 0-2 0-3 1-5 1-1 0-2 0-4 0-1 0-2 0-4 0-1 0-3 0-4 0-1 1-3 1-4 1-2 0-3 0-4 0-2 0-3 0-5 0-1 0-3 0-4 0 0 0-1 0-1 0-2 0-4 0-6 0 0 0-1 0-1 0-2 0-5 0-7 0 0 0-1 0-2 0-2-1-5-1-7-1-1 0-1 0-1 0-2 0-5 0-7 0-1 0-1 0-2 0-2-1-5-1-7-1-1 0-1 0-1 0-2 0-5-1-7-1-1 0-1 0-2 0-3-1-5-1-8-1 0 0 0 0 0 0-3-1-5-1-7-2-1 0-2 0-2 0-3 0-5-1-8-1 0 0 0 0 0 0-3-1-5-1-8-2 0 0-1 0-2 0-2-1-5-1-7-2-29-7-56-16-81-28-2-1-3-2-5-3-12-6-23-12-34-19-2-1-3-2-4-2-6-4-11-8-17-11-2-2-5-4-8-6-10-8-20-16-29-25-3-2-5-4-7-7-9-7-16-15-24-24-5-6-10-12-15-18-2-3-4-6-6-8-2-3-4-5-5-8-4-5-8-10-11-16-3-4-5-8-8-12-3-6-6-11-9-17-2-4-4-8-6-13-4-7-7-14-10-22-1-1-1-3-2-4-1-3-2-6-3-9-4-9-7-18-9-28-1-3-2-6-3-9 0-2-1-3-1-5-1-3-1-6-2-9-1-5-2-10-3-15-1-4-2-9-2-14-1-2-1-3-1-5-2-18-4-36-3-54 0-30 3-60 10-90 1-3 2-5 2-8 0-1 1-1 1-2 0-2 1-4 1-6 1 0 1-1 1-2 1-2 1-4 2-7 0 0 0 0 0-1 1-2 2-5 3-7 0-1 0-2 0-2 1-2 2-4 2-6 1 0 1-1 1-2 1-2 1-4 2-6 0 0 1-1 1-2 1-2 2-4 3-7 0 0 0-1 0-2 1-1 2-3 3-5 0-1 0-2 1-2 0-2 1-4 2-5 0-1 0-2 1-3 1-2 2-4 3-6 0-1 1-2 1-2 1-2 2-3 2-5 1-1 1-2 2-3 0-1 1-3 2-4 0-1 1-2 1-3 0 0 1 0 1 0 0 0 0 0 0 0 69-129 205-210 351-210 28 0 57 3 85 9 1 0 2 0 3 1 1 0 3 0 4 1 0 0 0 0 0 0 3 0 5 1 8 1 0 0 1 1 1 1 2 0 5 1 7 2 0 0 0 0 1 0 2 0 4 1 6 2 1 0 1 0 1 0 3 1 5 1 7 2 6 2 11 4 16 5 5 2 10 4 14 6 5 2 9 4 14 6 4 2 9 4 14 7 11 6 22 12 33 18 0 1 1 1 1 1 66 42 118 103 150 173 1 2 2 4 2 6 2 3 3 7 5 10 0 0 0 1 0 1 6 14 11 29 15 43 0 3 1 6 2 10 0-2-1-4-1-5 1 6 3 12 4 19 1 2 1 4 1 6 1 1 1 1 1 2 4 21 6 43 6 65 1 3 1 6 1 10-1 29-4 60-11 90z m-43-151c-7-45-23-87-47-126-24-39-55-72-92-99-38-28-80-47-127-58-26-7-54-10-81-10-39 0-78 7-115 20-37 12-71 31-101 55-31 24-57 53-79 85-6 11-12 21-18 32 55 43 153 121 200 158 16 13 37 14 55 4l107-62c18-11 42-9 57 6l215 198c9-20 17-41 22-63 11-47 12-94 4-140z" horiz-adv-x="1000" />

<glyph glyph-name="mds_ic_gtt" unicode="&#xe863;" d="M217 520c-28 0-50-23-50-51 0-27 22-50 50-50h281l-317-317c-9-9-14-22-14-35 0-28 22-50 50-50 13 0 26 5 35 14l317 317v-281c0-28 22-50 50-50 28 0 50 22 50 50v326c0 70-56 126-126 126h-226l-100 1z m616-458c0-25-20-45-45-45-25 0-46 20-46 45v344c0 103-83 186-186 186h-344c-25 0-45 21-45 46 0 25 20 45 45 45h344c153 0 277-124 277-277v-344z" horiz-adv-x="1000" />

<glyph glyph-name="mds_ic_help" unicode="&#xe864;" d="M498 100c15 0 27 5 37 15 10 10 15 23 15 37 0 15-5 27-15 37-10 10-22 15-37 15-15 0-27-5-37-15-10-10-15-22-15-37 0-14 5-27 15-37 10-10 22-15 37-15z m2-167c-58 0-112 11-162 33-51 22-95 52-133 89-37 38-67 82-89 133-22 50-33 104-33 162 0 58 11 112 33 163 22 50 52 94 89 132 38 37 82 67 133 89 50 22 104 33 162 33 58 0 112-11 163-33 50-22 94-52 132-89 37-38 67-82 89-132 22-51 33-105 33-163 0-58-11-112-33-162-22-51-52-95-89-133-38-37-82-67-132-89-51-22-105-33-163-33z m4 596c18 0 33-5 46-16 12-12 19-25 19-42 0-15-5-29-14-41-10-12-20-23-32-33-16-14-30-29-42-46-12-17-18-35-18-56 0-10 3-18 10-25 8-6 16-10 26-10 10 0 19 4 27 11 7 7 12 16 14 26 2 15 9 28 18 39 10 11 21 22 32 33 16 15 29 32 41 50 11 18 17 38 17 60 0 36-14 65-43 87-29 23-63 34-101 34-26 0-51-6-75-17-24-11-42-28-55-51-5-8-6-17-5-26 2-10 7-17 14-22 10-5 20-7 31-5 10 2 19 8 26 18 7 10 17 18 28 24 12 5 24 8 36 8z" horiz-adv-x="1000" />

<glyph glyph-name="mds_ic_help_outline" unicode="&#xe865;" d="M498 100c15 0 27 5 37 15 10 10 15 23 15 37 0 15-5 27-15 37-10 10-22 15-37 15-15 0-27-5-37-15-10-10-15-22-15-37 0-14 5-27 15-37 10-10 22-15 37-15z m2-167c-58 0-112 11-162 33-51 22-95 52-133 89-37 38-67 82-89 133-22 50-33 104-33 162 0 58 11 112 33 163 22 50 52 94 89 132 38 37 82 67 133 89 50 22 104 33 162 33 58 0 112-11 163-33 50-22 94-52 132-89 37-38 67-82 89-132 22-51 33-105 33-163 0-58-11-112-33-162-22-51-52-95-89-133-38-37-82-67-132-89-51-22-105-33-163-33z m0 84c93 0 172 32 237 97 64 64 96 143 96 236 0 93-32 172-96 237-65 64-144 96-237 96-93 0-172-32-236-96-65-65-97-144-97-237 0-93 32-172 97-236 64-65 143-97 236-97z m4 512c18 0 33-5 46-16 12-12 19-25 19-42 0-15-5-29-14-41-10-12-20-23-32-33-16-14-30-29-42-46-12-17-18-35-18-56 0-10 3-18 10-25 8-6 16-10 26-10 10 0 19 4 27 11 7 7 12 16 14 26 2 15 9 28 18 39 10 11 21 22 32 33 16 15 29 32 41 50 11 18 17 38 17 60 0 36-14 65-43 87-29 23-63 34-101 34-26 0-51-6-75-17-24-11-42-28-55-51-5-8-6-17-5-26 2-10 7-17 14-22 10-5 20-7 31-5 10 2 19 8 26 18 7 10 17 18 28 24 12 5 24 8 36 8z m-6-429c15 0 27 5 37 15 10 10 15 23 15 37 0 15-5 27-15 37-10 10-22 15-37 15-15 0-27-5-37-15-10-10-15-22-15-37 0-14 5-27 15-37 10-10 22-15 37-15z m2-167c-58 0-112 11-162 33-51 22-95 52-133 89-37 38-67 82-89 133-22 50-33 104-33 162 0 58 11 112 33 163 22 50 52 94 89 132 38 37 82 67 133 89 50 22 104 33 162 33 58 0 112-11 163-33 50-22 94-52 132-89 37-38 67-82 89-132 22-51 33-105 33-163 0-58-11-112-33-162-22-51-52-95-89-133-38-37-82-67-132-89-51-22-105-33-163-33z m0 84c93 0 172 32 237 97 64 64 96 143 96 236 0 93-32 172-96 237-65 64-144 96-237 96-93 0-172-32-236-96-65-65-97-144-97-237 0-93 32-172 97-236 64-65 143-97 236-97z m4 512c18 0 33-5 46-16 12-12 19-25 19-42 0-15-5-29-14-41-10-12-20-23-32-33-16-14-30-29-42-46-12-17-18-35-18-56 0-10 3-18 10-25 8-6 16-10 26-10 10 0 19 4 27 11 7 7 12 16 14 26 2 15 9 28 18 39 10 11 21 22 32 33 16 15 29 32 41 50 11 18 17 38 17 60 0 36-14 65-43 87-29 23-63 34-101 34-26 0-51-6-75-17-24-11-42-28-55-51-5-8-6-17-5-26 2-10 7-17 14-22 10-5 20-7 31-5 10 2 19 8 26 18 7 10 17 18 28 24 12 5 24 8 36 8z" horiz-adv-x="1000" />

<glyph glyph-name="mds_ic_hide_eye" unicode="&#xe866;" d="M854-63c-16-16-42-16-58 0l-146 144c-24-7-49-13-74-17-25-4-50-6-76-6-93 0-178 25-255 75-77 50-138 116-181 198-4 7-6 13-8 20-2 6-3 13-3 20 0 7 1 14 3 20 2 7 4 13 8 19 15 28 31 54 49 80 17 25 37 48 60 68l-86 88c-16 16-16 42 0 58 17 16 43 16 59 0l708-708c16-16 16-42 0-59z m-354 246c8 0 15 1 22 1 7 1 14 3 21 5l-225 225c-2-7-4-14-4-21-1-7-1-14-1-22 0-52 18-96 54-133 37-36 81-55 133-55z m304-18l-132 131c5 12 9 24 11 36 3 13 5 26 5 39 0 52-19 96-55 133-37 36-81 54-133 54-13 0-26-1-38-4-13-3-25-7-37-12l-106 106c29 12 59 21 89 27 30 5 61 8 92 8 93 0 178-25 256-75 77-50 138-117 182-199 3-5 6-11 7-18 2-6 3-13 3-20 0-7-1-14-2-20-2-7-4-13-7-19-17-32-36-63-58-91-22-29-48-54-77-76z m-192 191l-125 125c18 4 35 2 52-4 17-6 32-16 43-29 12-13 21-27 26-43 5-16 6-32 4-49z" horiz-adv-x="1000" />

<glyph glyph-name="mds_ic_hide_eye_outline" unicode="&#xe867;" d="M671 338l-61 60c8 37-1 68-28 94-27 26-59 37-97 31l-60 60c12 6 24 10 37 13 12 3 25 4 38 4 52 0 96-18 133-55 36-36 55-80 55-132 0-14-2-26-5-39-2-12-7-25-12-36z m133-132l-60 59c26 20 50 42 71 67 20 24 38 51 52 81-35 70-85 125-151 167-65 41-137 62-216 62-20 0-40-2-59-4-19-3-38-7-58-13l-64 65c29 11 59 20 89 26 30 6 61 9 92 9 95 0 182-25 261-75 79-50 139-117 181-202 2-6 5-11 6-17 1-6 2-12 2-18 0-7 0-13-2-19-1-6-2-11-5-17-16-34-35-65-59-94-23-29-50-54-80-77z m-304-106c-93 0-178 25-255 76-77 50-138 116-182 198-4 6-7 12-8 18-2 7-3 14-3 21 0 6 1 13 2 19 2 7 4 13 8 19 13 28 30 54 48 80 18 25 39 48 63 69l-86 88c-8 8-12 18-11 29 0 12 4 21 12 29 7 8 17 11 29 11 12 0 21-3 29-11l708-708c8-8 12-18 12-29 1-12-3-22-12-30-7-8-17-11-29-11-12 0-21 3-29 11l-146 144c-24-8-49-13-74-17-25-4-50-6-76-6z m-269 442c-20-18-38-38-55-60-17-21-31-44-43-69 35-71 85-126 151-168 66-41 138-62 216-62 14 0 27 1 41 3 13 2 26 4 40 6l-37 39c-8-2-15-3-22-4-7-1-14-2-22-2-52 0-96 18-133 55-36 36-54 80-54 133 0 7 0 14 1 21 1 7 3 15 5 22l-88 86z" horiz-adv-x="1000" />

<glyph glyph-name="mds_ic_home" unicode="&#xe868;" d="M167 58v375c0 14 3 26 9 38 5 12 14 21 24 29l250 188c15 11 31 16 50 16 19 0 35-5 50-16l250-188c10-8 19-17 25-29 5-12 8-24 8-38v-375c0-23-8-42-24-59-16-16-36-24-59-24h-125c-12 0-22 4-30 12-8 8-12 18-12 30v208c0 12-4 22-12 30-8 8-17 12-29 12h-84c-11 0-21-4-29-12-8-8-12-18-12-30v-208c0-12-4-22-12-30-8-8-18-12-30-12h-125c-23 0-42 8-59 24-16 17-24 36-24 59z" horiz-adv-x="1000" />

<glyph glyph-name="mds_ic_home_outline" unicode="&#xe869;" d="M250 58h125v209c0 12 4 21 12 29 8 8 18 12 30 12h166c12 0 22-4 30-12 8-8 12-17 12-29v-209h125v375l-250 188-250-188v-375z m-83 0v375c0 14 3 26 9 38 5 12 14 21 24 29l250 188c15 11 31 16 50 16 19 0 35-5 50-16l250-188c10-8 19-17 25-29 5-12 8-24 8-38v-375c0-23-8-42-24-59-16-16-36-24-59-24h-167c-11 0-21 4-29 12-8 8-12 18-12 30v208h-84v-208c0-12-4-22-12-30-8-8-17-12-29-12h-167c-23 0-42 8-59 24-16 17-24 36-24 59z" horiz-adv-x="1000" />

<glyph glyph-name="mds_ic_hourglass_bottom" unicode="&#xe86a;" d="M500 392c46 0 85 16 118 49 32 32 49 72 49 117v125h-334v-125c0-45 17-85 49-117 33-33 72-49 118-49z m-292-459c-11 0-21 4-29 12-8 8-12 18-12 30 0 12 4 22 12 30 8 8 18 12 29 12h42v125c0 42 10 82 30 119 20 37 47 67 83 89-36 22-63 52-83 89-20 37-30 77-30 119v125h-42c-11 0-21 4-29 12-8 8-12 18-12 30 0 12 4 22 12 30 8 8 18 12 29 12h584c12 0 21-4 29-12 8-8 12-18 12-30 0-12-4-22-12-30-8-8-17-12-29-12h-42v-125c0-42-10-82-30-119-19-37-47-67-82-89 35-22 63-52 82-89 20-37 30-77 30-119v-125h42c12 0 21-4 29-12 8-8 12-18 12-30 0-12-4-22-12-30-8-8-17-12-29-12h-584z" horiz-adv-x="1000" />

<glyph glyph-name="mds_ic_hourglass_disabled" unicode="&#xe86b;" d="M208-67c-11 0-21 4-29 12-8 8-12 18-12 30 0 12 4 22 12 30 8 8 18 12 29 12h42v125c0 42 10 82 30 119 20 37 47 67 83 89-36 22-63 52-83 89-20 37-30 77-30 119v125h-42c-11 0-21 4-29 12-8 8-12 18-12 30 0 12 4 22 12 30 8 8 18 12 29 12h584c12 0 21-4 29-12 8-8 12-18 12-30 0-12-4-22-12-30-8-8-17-12-29-12h-42v-125c0-42-10-82-30-119-19-37-47-67-82-89 35-22 63-52 82-89 20-37 30-77 30-119v-125h42c12 0 21-4 29-12 8-8 12-18 12-30 0-12-4-22-12-30-8-8-17-12-29-12h-584z" horiz-adv-x="1000" />

<glyph glyph-name="mds_ic_hourglass_filled" unicode="&#xe86c;" d="M824-91l-25 24h-591c-11 0-21 4-29 12-8 8-12 18-12 30 0 12 4 22 12 30 8 8 18 12 29 12h42v125c0 42 10 82 30 119 20 37 47 67 83 89-23 14-42 31-57 50-16 19-29 41-38 65l-211 210c-8 8-12 18-12 30 0 11 4 21 12 29 9 9 19 13 30 13 11 0 21-4 30-13l766-766c9-9 13-18 13-30 0-11-4-20-13-29-8-8-18-12-29-12-12 0-22 4-30 12z m-157 774h-363c-14 0-24 5-31 13-7 9-10 19-10 29 0 10 3 20 10 29 7 8 17 13 31 13h488c12 0 21-4 29-12 8-8 12-18 12-30 0-12-4-22-12-30-8-8-17-12-29-12h-42v-125c0-38-8-74-24-108-16-35-39-63-69-86-7-7-16-8-27-4-10 4-18 11-24 20-5 10-7 20-5 30 1 11 6 20 14 28 16 16 28 34 38 55 9 21 14 42 14 65v125z m-334-666h334v49l-230 230c-32-13-57-34-75-62-19-27-29-58-29-92v-125z" horiz-adv-x="1000" />

<glyph glyph-name="mds_ic_hourglass_outline" unicode="&#xe86d;" d="M333 17h334v125c0 46-17 85-49 117-33 33-72 49-118 49-46 0-85-16-118-49-32-32-49-71-49-117v-125z m167 375c46 0 85 16 118 49 32 32 49 72 49 117v125h-334v-125c0-45 17-85 49-117 33-33 72-49 118-49z m-292-459c-11 0-21 4-29 12-8 8-12 18-12 30 0 12 4 22 12 30 8 8 18 12 29 12h42v125c0 42 10 82 30 119 20 37 47 67 83 89-36 22-63 52-83 89-20 37-30 77-30 119v125h-42c-11 0-21 4-29 12-8 8-12 18-12 30 0 12 4 22 12 30 8 8 18 12 29 12h584c12 0 21-4 29-12 8-8 12-18 12-30 0-12-4-22-12-30-8-8-17-12-29-12h-42v-125c0-42-10-82-30-119-19-37-47-67-82-89 35-22 63-52 82-89 20-37 30-77 30-119v-125h42c12 0 21-4 29-12 8-8 12-18 12-30 0-12-4-22-12-30-8-8-17-12-29-12h-584z" horiz-adv-x="1000" />

<glyph glyph-name="mds_ic_hourglass_top" unicode="&#xe86e;" d="M333 17h334v125c0 46-17 85-49 117-33 33-72 49-118 49-46 0-85-16-118-49-32-32-49-71-49-117v-125z m-125-84c-11 0-21 4-29 12-8 8-12 18-12 30 0 12 4 22 12 30 8 8 18 12 29 12h42v125c0 42 10 82 30 119 20 37 47 67 83 89-36 22-63 52-83 89-20 37-30 77-30 119v125h-42c-11 0-21 4-29 12-8 8-12 18-12 30 0 12 4 22 12 30 8 8 18 12 29 12h584c12 0 21-4 29-12 8-8 12-18 12-30 0-12-4-22-12-30-8-8-17-12-29-12h-42v-125c0-42-10-82-30-119-19-37-47-67-82-89 35-22 63-52 82-89 20-37 30-77 30-119v-125h42c12 0 21-4 29-12 8-8 12-18 12-30 0-12-4-22-12-30-8-8-17-12-29-12h-584z" horiz-adv-x="1000" />

<glyph glyph-name="mds_ic_image" unicode="&#xe86f;" d="M208-42c-23 0-42 8-58 24-17 17-25 36-25 59v584c0 23 8 42 25 59 16 16 35 24 58 24h584c23 0 42-8 59-24 16-17 24-36 24-59v-584c0-23-8-42-24-59-17-16-36-24-59-24h-584z m42 167h500l-156 208-125-167-94 125-125-166z" horiz-adv-x="1000" />

<glyph glyph-name="mds_ic_image_outline" unicode="&#xe870;" d="M208-42c-23 0-42 8-58 24-17 17-25 36-25 59v584c0 23 8 42 25 59 16 16 35 24 58 24h584c23 0 42-8 59-24 16-17 24-36 24-59v-584c0-23-8-42-24-59-17-16-36-24-59-24h-584z m0 83h584v584h-584v-584z m42 84h500l-156 208-125-167-94 125-125-166z" horiz-adv-x="1000" />

<glyph glyph-name="mds_ic_info" unicode="&#xe871;" d="M500 142c12 0 22 4 30 12 8 8 12 18 12 29v167c0 12-4 22-12 30-8 8-18 12-30 12-12 0-22-4-30-12-8-8-12-18-12-30v-167c0-11 4-21 12-29 8-8 18-12 30-12z m0 333c12 0 22 4 30 12 8 8 12 18 12 30 0 12-4 21-12 29-8 8-18 12-30 12-12 0-22-4-30-12-8-8-12-17-12-29 0-12 4-22 12-30 8-8 18-12 30-12z m0-542c-58 0-112 11-162 33-51 22-95 52-133 89-37 38-67 82-89 133-22 50-33 104-33 162 0 58 11 112 33 163 22 50 52 94 89 132 38 37 82 67 133 89 50 22 104 33 162 33 58 0 112-11 163-33 50-22 94-52 132-89 37-38 67-82 89-132 22-51 33-105 33-163 0-58-11-112-33-162-22-51-52-95-89-133-38-37-82-67-132-89-51-22-105-33-163-33z" horiz-adv-x="1000" />

<glyph glyph-name="mds_ic_info_outline" unicode="&#xe872;" d="M500 142c12 0 22 4 30 12 8 8 12 18 12 29v167c0 12-4 22-12 30-8 8-18 12-30 12-12 0-22-4-30-12-8-8-12-18-12-30v-167c0-11 4-21 12-29 8-8 18-12 30-12z m0 333c12 0 22 4 30 12 8 8 12 18 12 30 0 12-4 21-12 29-8 8-18 12-30 12-12 0-22-4-30-12-8-8-12-17-12-29 0-12 4-22 12-30 8-8 18-12 30-12z m0-542c-58 0-112 11-162 33-51 22-95 52-133 89-37 38-67 82-89 133-22 50-33 104-33 162 0 58 11 112 33 163 22 50 52 94 89 132 38 37 82 67 133 89 50 22 104 33 162 33 58 0 112-11 163-33 50-22 94-52 132-89 37-38 67-82 89-132 22-51 33-105 33-163 0-58-11-112-33-162-22-51-52-95-89-133-38-37-82-67-132-89-51-22-105-33-163-33z m0 84c93 0 172 32 237 97 64 64 96 143 96 236 0 93-32 172-96 237-65 64-144 96-237 96-93 0-172-32-236-96-65-65-97-144-97-237 0-93 32-172 97-236 64-65 143-97 236-97z" horiz-adv-x="1000" />

<glyph glyph-name="mds_ic_insurance_filled" unicode="&#xe873;" d="M467 317l-76 77c-6 6-14 9-24 9-10 0-19-3-25-10-6-6-9-14-9-24 0-10 3-18 9-24l90-92c8-10 19-15 32-15 14 0 25 5 33 15l177 176c7 6 10 14 10 23 0 9-3 18-10 25-7 7-15 10-25 9-9 0-17-3-23-10l-159-159z m41-384c-5 0-10 1-15 2-5 1-10 2-14 4-95 31-171 89-227 176-57 86-85 178-85 277v189c0 19 5 37 16 53 10 16 25 27 44 34l250 94c10 3 20 5 31 5 12 0 22-2 32-5l251-94c18-7 33-18 44-34 11-16 16-34 16-53v-189c0-99-28-191-85-277-57-87-133-145-228-176-4-2-9-3-14-4-5-1-10-2-16-2z" horiz-adv-x="1000" />

<glyph glyph-name="mds_ic_insurance_outline" unicode="&#xe874;" d="M457 307l-80 81c-6 6-15 9-25 9-10 0-19-3-26-10-6-7-9-15-9-25 0-11 3-19 9-25l95-96c9-11 20-16 33-16 14 0 25 5 35 16l184 183c7 6 10 14 10 24 0 10-3 18-9 26-8 7-17 10-27 10-10 0-18-4-24-11l-166-166z m43-390c-6 0-11 0-16 1-6 1-10 2-14 5-99 32-179 93-238 183-59 90-88 187-88 289v197c0 20 5 38 17 55 11 17 26 28 45 35l262 98c9 4 20 5 32 5 12 0 23-1 33-5l262-98c18-6 34-18 45-35 12-16 17-35 17-55v-197c0-102-29-199-89-289-59-90-138-151-237-183-4-2-9-4-14-5-6-1-11-1-17-1z m0 91c76 30 138 80 188 150 49 70 74 149 74 237v197l-262 98-261-99v-196c0-88 24-167 74-237 49-70 111-120 187-150z" horiz-adv-x="1000" />

<glyph glyph-name="mds_ic_key" unicode="&#xe875;" d="M292 225c-35 0-65 12-89 37-24 24-36 53-36 88 0 35 12 64 36 89 24 24 54 36 89 36 34 0 64-12 88-36 25-25 37-54 37-89 0-35-12-64-37-88-24-25-54-37-88-37z m0-125c53 0 101 15 145 46 43 30 73 71 90 121h15l54-54c4-5 9-8 13-9 5-2 10-3 16-3 6 0 11 1 16 3 5 1 9 4 13 9l54 54 73-58c4-3 9-6 14-7 6-2 11-3 17-2 5 1 10 2 15 5 4 2 8 5 12 10l93 107c4 4 6 9 8 13 2 5 3 11 3 16 0 6-1 11-3 15-2 5-5 9-9 12l-42 43c-5 4-9 7-14 9-6 2-11 3-17 3h-331c-17 48-46 87-88 119-42 32-91 48-147 48-70 0-129-24-177-73-49-48-73-108-73-177 0-69 24-128 73-177 48-49 107-73 177-73z" horiz-adv-x="1000" />

<glyph glyph-name="mds_ic_key_outline" unicode="&#xe876;" d="M292 267c-23 0-43 8-59 24-16 17-25 36-25 59 0 23 9 43 25 59 16 16 36 24 59 24 23 0 42-8 59-24 16-16 24-36 24-59 0-23-8-42-24-59-17-16-36-24-59-24z m0-167c-70 0-129 24-177 73-49 49-73 108-73 177 0 69 24 129 73 177 48 49 107 73 177 73 46 0 88-11 126-34 38-23 68-53 90-91h349c6 0 11-1 16-3 6-2 10-5 15-9l83-84c4-4 7-8 9-13 1-5 2-10 2-16 0-6-1-11-2-16-2-4-5-9-9-13l-132-132c-4-4-8-7-13-9-5-2-10-3-14-4-5-1-10 0-15 1-5 2-9 4-14 7l-54 41-59-45c-4-3-7-5-12-6-4-1-8-2-12-2-4 0-9 1-13 2-5 1-9 3-12 6l-64 45h-49c-22-37-52-68-90-91-38-22-80-34-126-34z m0 83c39 0 73 12 102 36 30 23 49 53 59 89h130l61-42 85 63 74-57 78 78-41 42h-387c-10 36-29 66-59 89-29 24-63 36-102 36-46 0-85-17-118-49-33-33-49-72-49-118 0-46 16-85 49-118 33-32 72-49 118-49z" horiz-adv-x="1000" />

<glyph glyph-name="mds_ic_line_chart" unicode="&#xe877;" d="M115 110c-9 9-14 20-14 32 0 12 5 22 14 31l222 222c15 16 35 24 59 24 23 0 43-8 59-24l108-107 266 301c8 9 18 13 30 13 12 0 22-4 31-12 7-8 11-17 12-28 0-11-4-20-11-29l-270-304c-16-18-36-27-59-28-24-1-45 7-62 24l-104 104-219-219c-9-9-19-13-31-13-12 0-22 4-31 13z" horiz-adv-x="1000" />

<glyph glyph-name="mds_ic_line_chart_dots" unicode="&#xe878;" d="M125 100c-23 0-42 8-59 25-16 16-24 35-24 58 0 23 8 43 24 59 17 17 36 25 59 25h11c3 0 6-1 10-2l189 189c-1 4-2 7-2 10v11c0 23 9 43 25 59 16 16 36 24 59 24 23 0 42-8 59-24 16-16 24-36 24-59 0-1-1-8-2-21l106-106c4 1 7 2 10 2h22c3 0 6-1 10-2l148 148c-2 3-2 7-2 10v11c0 23 8 42 24 59 17 16 36 24 59 24 23 0 43-8 59-24 16-17 24-36 24-59 0-23-8-43-24-59-16-16-36-25-59-25h-11c-3 0-6 1-10 2l-148-147c2-4 2-7 2-10v-11c0-23-8-43-24-59-16-16-36-25-59-25-23 0-42 9-59 25-16 16-24 36-24 59v11c0 3 0 6 2 10l-106 106c-4-2-7-2-10-2h-11c-2 0-9 0-21 2l-190-190c2-3 2-7 2-10v-11c0-23-8-42-24-58-16-17-36-25-59-25z" horiz-adv-x="1000" />

<glyph glyph-name="mds_ic_link" unicode="&#xe879;" d="M311 103c-64 0-118 22-162 66-44 44-66 98-66 162 0 63 22 117 66 161 44 44 98 66 162 66h129c13 0 23-4 31-13 8-8 12-18 12-31 0-12-4-22-12-30-8-9-18-13-31-13h-129c-40 0-74-13-101-41-26-27-40-60-40-99 0-39 14-73 40-100 27-27 61-41 101-41h129c13 0 23-4 31-13 8-8 12-18 12-30 0-12-4-23-12-31-8-8-18-13-31-13h-129z m72 191c-11 0-19 3-27 10-7 7-10 16-10 27 0 11 3 20 10 26 7 7 16 10 27 10h274c10 0 19-3 26-10 7-6 11-15 11-26 0-11-4-20-10-27-7-7-16-10-27-10h-274z m218-191c-14 0-24 5-33 13-8 9-12 19-12 31 0 12 4 22 12 31 9 8 19 12 33 12h128c39 0 73 14 100 41 27 27 40 60 40 99 0 40-13 73-40 100-27 28-61 41-100 41h-128c-14 0-24 4-33 13-8 8-12 19-12 31 0 12 4 22 12 31 9 8 19 12 33 12h128c63 0 117-22 161-66 44-44 67-98 67-161 0-64-23-118-67-162-44-44-98-66-161-66h-128z" horiz-adv-x="1000" />

<glyph glyph-name="mds_ic_list" unicode="&#xe87a;" d="M333 475c-11 0-21 4-29 12-8 8-12 18-12 30 0 12 4 21 12 29 8 8 18 12 29 12h500c12 0 22-4 30-12 8-8 12-17 12-29 0-12-4-22-12-30-8-8-18-12-30-12h-500z m0-167c-11 0-21 4-29 12-8 8-12 18-12 30 0 12 4 22 12 30 8 8 18 12 29 12h500c12 0 22-4 30-12 8-8 12-18 12-30 0-12-4-22-12-30-8-8-18-12-30-12h-500z m0-166c-11 0-21 4-29 12-8 8-12 18-12 29 0 12 4 22 12 30 8 8 18 12 29 12h500c12 0 22-4 30-12 8-8 12-18 12-30 0-11-4-21-12-29-8-8-18-12-30-12h-500z m-166 333c-12 0-22 4-30 12-8 8-12 18-12 30 0 12 4 21 12 29 8 8 18 12 30 12 12 0 21-4 29-12 8-8 12-17 12-29 0-12-4-22-12-30-8-8-17-12-29-12z m0-167c-12 0-22 4-30 12-8 8-12 18-12 30 0 12 4 22 12 30 8 8 18 12 30 12 12 0 21-4 29-12 8-8 12-18 12-30 0-12-4-22-12-30-8-8-17-12-29-12z m0-166c-12 0-22 4-30 12-8 8-12 18-12 29 0 12 4 22 12 30 8 8 18 12 30 12 12 0 21-4 29-12 8-8 12-18 12-30 0-11-4-21-12-29-8-8-17-12-29-12z" horiz-adv-x="1000" />

<glyph glyph-name="mds_ic_loans_filled" unicode="&#xe87b;" d="M861 660h-722c-28 0-54-11-73-31-19-19-30-45-30-73v-413c0-27 11-53 30-73 19-19 45-30 73-30h722c28 0 54 11 73 30 19 20 30 46 30 73v413c0 28-11 54-30 73-19 19-45 31-73 31z m-361-456c-29 0-57 9-81 25-24 16-43 39-54 65-11 27-14 56-8 84 6 29 19 55 40 75 20 20 46 34 74 40 29 6 58 3 84-8 27-12 50-30 66-54 16-24 24-52 24-81 0-39-15-76-42-104-28-27-65-43-104-43l1 1z" horiz-adv-x="1000" />

<glyph glyph-name="mds_ic_loans_outline" unicode="&#xe87c;" d="M875 9h-750c-62 0-112 50-112 112v458c0 62 50 112 112 112h750c62 0 112-50 112-112v-458c0-62-50-112-112-112z m-764 584c-7 0 0 7 0 0v-485c-7 0 0-8 0 0h778c0-8 7 0 0 0v485c0 7 7 0 0 0h-778z m389-430c-37 0-73 10-104 31-31 21-55 50-69 84-14 35-18 72-11 109 7 36 25 69 52 96 26 26 59 44 95 51 37 7 74 4 109-11 34-14 63-38 84-69 21-31 32-67 32-104 0-50-20-97-55-133-35-35-84-55-133-55v1z m0 291c-7 0-14-1-20-2-21-4-39-14-54-28-14-15-24-33-28-54-4-20-2-41 6-60 8-19 21-35 38-47 40-26 98-20 132 13 19 20 30 46 30 74 0 21-6 41-17 58-12 17-28 30-47 38-12 6-26 8-40 8h0z" horiz-adv-x="1000" />

<glyph glyph-name="mds_ic_location" unicode="&#xe87d;" d="M520-41c-9 0-19 2-29 5-9 4-18 9-26 16-45 42-85 82-120 122-34 39-63 78-87 115-23 37-40 73-53 107-12 35-18 67-18 99 0 104 34 187 101 249 67 61 144 92 232 92 89 0 166-31 233-92 67-62 101-145 101-249 0-32-6-64-18-99-13-34-30-70-54-107-23-37-52-76-87-115-34-40-74-80-119-122-8-7-17-12-26-16-10-3-20-5-30-5z m0 389c23 0 43 8 59 24 17 17 25 36 25 59 0 23-8 43-25 59-16 16-36 24-59 24-22 0-42-8-58-24-17-16-25-36-25-59 0-23 8-42 25-59 16-16 36-24 58-24z" horiz-adv-x="1000" />

<glyph glyph-name="mds_ic_location_outline" unicode="&#xe87e;" d="M500 44c85 78 148 148 189 212 41 63 61 120 61 169 0 76-24 138-72 186-49 48-108 72-178 72-70 0-129-24-178-72-48-48-72-110-72-186 0-49 21-106 62-169 40-64 103-134 188-212z m0-83c-10 0-19 2-29 6-10 3-19 8-26 15-45 42-85 83-120 122-35 40-64 78-87 115-23 37-41 73-53 108-12 34-18 67-18 98 0 104 33 187 100 249 67 62 145 93 233 93 88 0 166-31 233-93 67-62 100-145 100-249 0-31-6-64-18-98-12-35-30-71-53-108-23-37-52-75-87-115-35-39-75-80-120-122-7-7-16-12-26-15-10-4-19-6-29-6z m0 389c23 0 43 8 59 25 16 16 24 35 24 58 0 23-8 43-24 59-16 17-36 25-59 25-23 0-42-8-59-25-16-16-24-36-24-59 0-23 8-42 24-58 17-17 36-25 59-25z" horiz-adv-x="1000" />

<glyph glyph-name="mds_ic_lock" unicode="&#xe87f;" d="M250-67c-23 0-42 8-59 25-16 16-24 36-24 59v416c0 23 8 43 24 59 17 17 36 25 59 25h42v83c0 58 20 107 61 147 40 41 89 61 147 61 58 0 107-20 147-61 41-40 61-89 61-147v-83h42c23 0 43-8 59-25 16-16 24-36 24-59v-416c0-23-8-43-24-59-16-17-36-25-59-25h-500z m250 209c23 0 43 8 59 24 16 17 24 36 24 59 0 23-8 43-24 59-16 16-36 24-59 24-23 0-42-8-59-24-16-16-24-36-24-59 0-23 8-42 24-59 17-16 36-24 59-24z m-125 375h250v83c0 35-12 64-36 89-25 24-54 36-89 36-35 0-64-12-88-36-25-25-37-54-37-89v-83z" horiz-adv-x="1000" />

<glyph glyph-name="mds_ic_lock_outline" unicode="&#xe880;" d="M250-67c-23 0-42 8-59 25-16 16-24 36-24 59v416c0 23 8 43 24 59 17 17 36 25 59 25h42v83c0 58 20 107 61 147 40 41 89 61 147 61 58 0 107-20 147-61 41-40 61-89 61-147v-83h42c23 0 43-8 59-25 16-16 24-36 24-59v-416c0-23-8-43-24-59-16-17-36-25-59-25h-500z m0 84h500v416h-500v-416z m250 125c23 0 43 8 59 24 16 17 24 36 24 59 0 23-8 43-24 59-16 16-36 24-59 24-23 0-42-8-59-24-16-16-24-36-24-59 0-23 8-42 24-59 17-16 36-24 59-24z m-125 375h250v83c0 35-12 64-36 89-25 24-54 36-89 36-35 0-64-12-88-36-25-25-37-54-37-89v-83z" horiz-adv-x="1000" />

<glyph glyph-name="mds_ic_medical" unicode="&#xe881;" d="M167-54c-23 0-43 8-59 24-16 17-25 36-25 59v500c0 23 9 43 25 59 16 16 36 25 59 25h166v83c0 23 9 42 25 59 16 16 36 24 59 24h166c23 0 43-8 59-24 17-17 25-36 25-59v-83h166c23 0 43-9 59-25 17-16 25-36 25-59v-500c0-23-8-42-25-59-16-16-36-24-59-24h-666z m250 667h166v83h-166v-83z m41-375v-84c0-12 4-21 12-29 8-8 18-12 30-12 12 0 22 4 30 12 8 8 12 17 12 29v84h83c12 0 22 4 30 12 8 8 12 17 12 29 0 12-4 22-12 30-8 8-18 12-30 12h-83v83c0 12-4 22-12 30-8 8-18 12-30 12-12 0-22-4-30-12-8-8-12-18-12-30v-83h-83c-12 0-22-4-30-12-8-8-12-18-12-30 0-12 4-21 12-29 8-8 18-12 30-12h83z" horiz-adv-x="1000" />

<glyph glyph-name="mds_ic_medical_outline" unicode="&#xe882;" d="M463 238v-84c0-12 4-21 12-29 8-8 18-12 30-12 12 0 21 4 29 12 8 8 12 17 12 29v84h84c12 0 21 4 29 12 8 8 12 17 12 29 0 12-4 22-12 30-8 8-17 12-29 12h-84v83c0 12-4 22-12 30-8 8-17 12-29 12-12 0-22-4-30-12-8-8-12-18-12-30v-83h-83c-12 0-22-4-30-12-8-8-12-18-12-30 0-12 4-21 12-29 8-8 18-12 30-12h83z m-292-292c-22 0-42 8-58 24-17 17-25 36-25 59v500c0 23 8 43 25 59 16 16 36 25 58 25h167v83c0 23 8 42 25 59 16 16 36 24 58 24h167c23 0 43-8 59-24 16-17 24-36 24-59v-83h167c23 0 43-9 59-25 16-16 24-36 24-59v-500c0-23-8-42-24-59-16-16-36-24-59-24h-667z m0 83h667v500h-667v-500z m250 584h167v83h-167v-83z" horiz-adv-x="1000" />

<glyph glyph-name="mds_ic_mf_filled" unicode="&#xe883;" d="M554 403h348c-13 90-51 168-116 233-64 65-142 104-232 115v-348z m-106-454v802c-100-13-183-58-250-134-66-76-100-165-100-267 0-102 34-191 100-267 67-76 150-121 250-134z m106 0c89 14 166 53 231 117 64 64 103 141 117 231h-348v-348z" horiz-adv-x="1000" />

<glyph glyph-name="mds_ic_mf_outline" unicode="&#xe884;" d="M545 395h293c-10 76-43 142-97 197-55 55-120 87-196 97v-294 0z m-90-384v677c-84-11-154-48-210-113-57-64-85-139-85-225 0-86 28-161 85-225 56-65 126-102 210-113v-1z m90 0c75 12 140 45 195 99 54 53 87 118 99 195h-294v-294h0z m-45-90c-59 0-115 11-167 34-53 22-98 53-136 91-39 39-69 84-92 136-22 52-34 108-34 168 0 60 12 116 34 168 23 53 53 98 92 137 38 38 83 68 136 91 52 22 107 33 167 33 60 0 115-11 168-34 52-22 97-53 136-91 39-39 69-84 91-137 23-52 34-108 34-167 0-59-11-116-33-168-22-52-53-97-91-136-39-38-85-69-137-91-52-23-108-34-168-34z" horiz-adv-x="1000" />

<glyph glyph-name="mds_ic_monitoring" unicode="&#xe885;" d="M167-25c-12 0-22 4-30 12-8 8-12 18-12 30v41c0 12 4 22 12 30 8 8 18 12 30 12 12 0 21-4 29-12 8-8 12-18 12-30v-41c0-12-4-22-12-30-8-8-17-12-29-12z m166 0c-11 0-21 4-29 12-8 8-12 18-12 30v229c0 12 4 22 12 30 8 8 18 12 29 12 12 0 22-4 30-12 8-8 12-18 12-30v-229c0-12-4-22-12-30-8-8-18-12-30-12z m167 0c-12 0-22 4-30 12-8 8-12 18-12 30v146c0 11 4 21 12 29 8 8 18 12 30 12 12 0 22-4 30-12 8-8 12-18 12-29v-146c0-12-4-22-12-30-8-8-18-12-30-12z m167 0c-12 0-22 4-30 12-8 8-12 18-12 30v208c0 12 4 22 12 30 8 8 18 12 30 12 12 0 21-4 29-12 8-8 12-18 12-30v-208c0-12-4-22-12-30-8-8-17-12-29-12z m166 0c-11 0-21 4-29 12-8 8-12 18-12 30v375c0 12 4 21 12 29 8 8 18 12 29 12 12 0 22-4 30-12 8-8 12-17 12-29v-375c0-12-4-22-12-30-8-8-18-12-30-12z m-250 376c-11 0-21 2-31 6-10 5-20 10-28 18l-107 107-221-220c-8-9-18-13-30-12-11 0-21 4-29 13-8 8-12 18-11 29 0 12 4 21 12 29l219 220c9 8 18 14 28 18 10 4 21 6 32 6 11 0 22-2 32-6 10-4 19-10 27-18l107-108 221 221c9 9 18 13 30 12 11 0 21-4 30-13 7-8 11-18 11-30-1-11-5-21-12-28l-220-220c-8-8-17-13-27-18-11-4-22-6-33-6z" horiz-adv-x="1000" />

<glyph glyph-name="mds_ic_more_filled" unicode="&#xe886;" d="M604 163h-208v-209h208v209z m0 291h-208v-208h208v208z m79 84h213v145c0 35-28 63-63 63h-150v-208z m-370-84h-209v-208h209v208z m0 84v208h-145c-35 0-64-28-64-63v-145h209z m0-375h-209v-145c0-36 29-64 64-64h145v209z m370 0v-209h150c35 0 63 28 63 64v145h-213z m-79 583h-208v-208h208v208z m288-292h-209v-208h209v208z" horiz-adv-x="1000" />

<glyph glyph-name="mds_ic_more_horizontal" unicode="&#xe887;" d="M202 278c-20 0-37 7-51 22-14 14-21 31-21 50 0 20 7 37 22 51 14 14 31 21 50 21 20 0 36-7 51-21 14-15 21-32 21-51 0-20-7-37-21-51-15-14-31-21-51-21z m298 0c-20 0-37 7-51 22-14 14-21 31-21 50 0 20 7 37 22 51 14 14 31 21 50 21 20 0 37-7 51-21 14-15 21-32 21-51 0-20-7-37-21-51-15-14-31-21-51-21z m298 0c-20 0-37 7-51 22-14 14-21 31-21 50 0 20 7 37 21 51 15 14 32 21 51 21 20 0 37-7 51-21 14-15 21-32 21-51 0-20-7-37-21-51-14-14-31-21-51-21z" horiz-adv-x="1000" />

<glyph glyph-name="mds_ic_more_outline" unicode="&#xe888;" d="M611 461h-222v-222h222v222z m0-306h-222v-222h222v222z m0 612h-222v-222h222v222z m-306-306h-222v-222h222v222z m612 84v155c0 37-30 67-67 67h-156v-222h223z m-612-390h-222v-155c0-37 30-67 67-67h155v222z m612 306h-222v-222h222v222z m-222-306v-222h155c37 0 67 30 67 67v155h-222z m-390 390v222h-155c-37 0-67-30-67-67v-155h222z" horiz-adv-x="1000" />

<glyph glyph-name="mds_ic_more_vertical" unicode="&#xe889;" d="M500-20c-20 0-37 7-51 22-14 14-21 31-21 50 0 20 7 36 22 51 14 14 31 21 50 21 20 0 37-7 51-21 14-15 21-31 21-51 0-20-7-37-21-51-15-14-32-21-51-21z m0 298c-20 0-37 7-51 22-14 14-21 31-21 50 0 20 7 37 22 51 14 14 31 21 50 21 20 0 37-7 51-21 14-15 21-32 21-51 0-20-7-37-21-51-15-14-32-21-51-21z m0 298c-20 0-37 7-51 21-14 15-21 32-21 51 0 20 7 37 22 51 14 14 31 21 50 21 20 0 37-7 51-21 14-14 21-31 21-51 0-20-7-37-21-51-15-14-32-21-51-21z" horiz-adv-x="1000" />

<glyph glyph-name="mds_ic_night_dark_mode" unicode="&#xe88a;" d="M500-25c-105 0-194 36-266 109-73 72-109 161-109 266 0 96 31 179 94 250 62 70 142 111 239 123 9 1 17 0 24-4 7-3 13-9 17-15 4-6 6-13 7-22 0-8-2-16-8-24-12-18-21-37-27-57-6-20-8-41-8-63 0-63 21-116 65-160 44-44 97-65 160-65 21 0 42 3 64 9 21 6 40 15 56 26 8 5 16 7 24 7 8-1 15-3 21-6 7-3 13-9 16-16 4-7 5-15 4-25-10-95-51-175-122-238-72-63-156-95-251-95z" horiz-adv-x="1000" />

<glyph glyph-name="mds_ic_night_dark_mode_outline" unicode="&#xe88b;" d="M500-25c-105 0-194 36-266 109-73 72-109 161-109 266 0 96 31 179 94 250 62 70 142 111 239 123 9 1 17 0 24-4 7-3 13-9 17-15 4-6 6-13 7-22 0-8-2-16-8-24-12-18-21-37-27-57-6-20-8-41-8-63 0-63 21-116 65-160 44-44 97-65 160-65 21 0 42 3 64 9 21 6 40 15 56 26 8 5 16 7 24 7 8-1 15-3 21-6 7-3 13-9 16-16 4-7 5-15 4-25-10-95-51-175-122-238-72-63-156-95-251-95z m0 83c61 0 116 17 165 51 48 34 84 78 106 132-14-4-28-7-42-9-14-2-28-3-41-3-86 0-159 30-219 90-60 60-90 133-90 219 0 13 1 27 3 41 2 14 5 28 9 42-54-22-98-58-132-106-34-49-51-104-51-165 0-81 29-149 86-206 57-57 125-86 206-86z" horiz-adv-x="1000" />

<glyph glyph-name="mds_ic_notification_bell" unicode="&#xe88c;" d="M208 58c-11 0-21 4-29 12-8 8-12 18-12 30 0 12 4 22 12 30 8 8 18 12 29 12h42v291c0 58 17 109 52 154 35 45 80 74 136 88v29c0 18 6 32 18 44 12 13 27 19 44 19 17 0 32-6 44-19 12-12 19-26 19-44v-29c55-14 100-43 135-88 35-45 52-96 52-154v-291h42c12 0 21-4 29-12 8-8 12-18 12-30 0-12-4-22-12-30-8-8-17-12-29-12h-584z m292-125c-23 0-42 8-59 25-16 16-24 36-24 59h166c0-23-8-43-24-59-16-17-36-25-59-25z" horiz-adv-x="1000" />

<glyph glyph-name="mds_ic_notification_bell_outline" unicode="&#xe88d;" d="M208 58c-11 0-21 4-29 12-8 8-12 18-12 30 0 12 4 22 12 30 8 8 18 12 29 12h42v291c0 58 17 109 52 154 35 45 80 74 136 88v29c0 18 6 32 18 44 12 13 27 19 44 19 17 0 32-6 44-19 12-12 19-26 19-44v-29c55-14 100-43 135-88 35-45 52-96 52-154v-291h42c12 0 21-4 29-12 8-8 12-18 12-30 0-12-4-22-12-30-8-8-17-12-29-12h-584z m292-125c-23 0-42 8-59 25-16 16-24 36-24 59h166c0-23-8-43-24-59-16-17-36-25-59-25z m-167 209h334v291c0 46-17 85-49 118-33 33-72 49-118 49-46 0-85-16-118-49-32-33-49-72-49-118v-291z" horiz-adv-x="1000" />

<glyph glyph-name="mds_ic_open_in_new" unicode="&#xe88e;" d="M208-25c-23 0-42 8-58 24-17 17-25 36-25 59v584c0 23 8 42 25 59 16 16 35 24 58 24h250c12 0 22-4 30-12 8-8 12-18 12-30 0-11-4-21-12-29-8-8-18-12-30-12h-250v-584h584v250c0 12 4 22 12 30 8 8 18 12 29 12 12 0 22-4 30-12 8-8 12-18 12-30v-250c0-23-8-42-24-59-17-16-36-24-59-24h-584z m584 608l-359-358c-7-8-17-11-29-11-12 0-21 3-29 11-8 8-11 17-11 29 0 12 3 22 11 29l358 359h-108c-12 0-22 4-30 12-8 8-12 18-12 29 0 12 4 22 12 30 8 8 18 12 30 12h250v-250c0-12-4-22-12-30-8-8-18-12-30-12-11 0-21 4-29 12-8 8-12 18-12 30v108z" horiz-adv-x="1000" />

<glyph glyph-name="mds_ic_pause_circle" unicode="&#xe88f;" d="M417 178c12 0 22 3 30 11 8 8 12 18 12 30v250c0 12-4 22-12 30-8 8-18 12-30 12-12 0-22-4-30-12-8-8-12-18-12-30v-250c0-12 4-22 12-30 8-8 18-11 30-11z m167 0c11 0 21 3 29 11 8 8 12 18 12 30v250c0 12-4 22-12 30-8 8-18 12-29 12-12 0-22-4-30-12-8-8-12-18-12-30v-250c0-12 4-22 12-30 8-8 18-11 30-11z m-84-251c-57 0-112 11-162 33-51 22-95 52-133 89-37 38-67 82-89 133-22 50-32 105-32 162 0 58 10 112 32 163 22 50 52 94 89 132 38 37 82 67 133 89 50 22 105 33 162 33 58 0 112-11 163-33 50-22 94-52 132-89 37-38 67-82 89-132 22-51 33-105 33-163 0-57-11-112-33-162-22-51-52-95-89-133-38-37-82-67-132-89-51-22-105-33-163-33z" horiz-adv-x="1000" />

<glyph glyph-name="mds_ic_pause_circle_outline" unicode="&#xe890;" d="M417 178c12 0 21 3 29 11 8 8 12 18 12 30v250c0 12-4 22-12 30-8 8-17 12-29 12-12 0-22-4-30-12-8-8-12-18-12-30v-250c0-12 4-22 12-30 8-8 18-11 30-11z m166 0c12 0 22 3 30 11 8 8 12 18 12 30v250c0 12-4 22-12 30-8 8-18 12-30 12-11 0-21-4-29-12-8-8-12-18-12-30v-250c0-12 4-22 12-30 8-8 18-11 29-11z m-83-251c-58 0-112 11-162 33-51 22-95 52-133 89-37 38-67 82-89 133-22 50-33 105-33 162 0 58 11 112 33 163 22 50 52 94 89 132 38 37 82 67 133 89 50 22 104 33 162 33 58 0 112-11 163-33 50-22 94-52 132-89 37-38 67-82 89-132 22-51 33-105 33-163 0-57-11-112-33-162-22-51-52-95-89-133-38-37-82-67-132-89-51-22-105-33-163-33z m0 84c93 0 172 32 237 97 64 64 96 143 96 236 0 93-32 172-96 237-65 64-144 97-237 97-93 0-172-33-236-97-65-65-97-144-97-237 0-93 32-172 97-236 64-65 143-97 236-97z" horiz-adv-x="1000" />

<glyph glyph-name="mds_ic_payments" unicode="&#xe891;" d="M125 17c-23 0-42 8-59 24-16 17-24 36-24 59v417c0 12 4 21 12 29 8 8 18 12 29 12 12 0 22-4 30-12 8-8 12-17 12-29v-417h667c12 0 21-4 29-12 8-8 12-18 12-30 0-11-4-21-12-29-8-8-17-12-29-12h-667z m167 166c-23 0-43 9-59 25-16 16-25 36-25 59v333c0 23 9 43 25 59 16 16 36 24 59 24h583c23 0 43-8 59-24 16-16 24-36 24-59v-333c0-23-8-43-24-59-16-16-36-25-59-25h-583z m83 84c0 23-8 42-24 59-17 16-36 24-59 24v-83h83z m417 0h83v83c-23 0-42-8-59-24-16-17-24-36-24-59z m-209 41c35 0 65 13 89 37 24 24 36 54 36 88 0 35-12 65-36 89-24 24-54 36-89 36-34 0-64-12-88-36-24-24-37-54-37-89 0-34 13-64 37-88 24-24 54-37 88-37z m-291 209c23 0 42 8 59 24 16 17 24 36 24 59h-83v-83z m583 0v83h-83c0-23 8-42 24-59 17-16 36-24 59-24z" horiz-adv-x="1000" />

<glyph glyph-name="mds_ic_payments_outline" unicode="&#xe892;" d="M583 308c-34 0-64 13-88 37-24 24-37 54-37 88 0 35 13 65 37 89 24 24 54 36 88 36 35 0 65-12 89-36 24-24 36-54 36-89 0-34-12-64-36-88-24-24-54-37-89-37z m-291-125c-23 0-43 9-59 25-16 16-25 36-25 59v333c0 23 9 43 25 59 16 16 36 24 59 24h583c23 0 43-8 59-24 16-16 24-36 24-59v-333c0-23-8-43-24-59-16-16-36-25-59-25h-583z m83 84h417c0 23 8 42 24 59 17 16 36 24 59 24v167c-23 0-42 8-59 24-16 17-24 36-24 59h-417c0-23-8-42-24-59-17-16-36-24-59-24v-167c23 0 42-8 59-24 16-17 24-36 24-59z m417-250h-667c-23 0-42 8-59 24-16 17-24 36-24 59v417c0 12 4 21 12 29 8 8 18 12 29 12 12 0 22-4 30-12 8-8 12-17 12-29v-417h667c12 0 21-4 29-12 8-8 12-18 12-30 0-11-4-21-12-29-8-8-17-12-29-12z" horiz-adv-x="1000" />

<glyph glyph-name="mds_ic_pay_filled" unicode="&#xe893;" d="M220 714l321-335h0c16-16 16-41 0-58l-321-335c-9-9-20-13-30-13-22 0-42 17-42 42v670c0 25 21 42 42 42 10 0 21-4 30-13z m299 0l322-335v0c15-16 15-41 0-57l-322-336c-8-9-19-13-29-13-22 0-42 17-42 42v83c0 4 1 7 3 9l178 186c31 32 31 83 0 115l-178 185c-2 3-3 6-3 9v83c0 25 20 42 42 42 10 0 20-4 29-13z" horiz-adv-x="1000" />

<glyph glyph-name="mds_ic_pay_outline" unicode="&#xe894;" d="M871 408l-322 335c-24 25-59 32-91 20-32-13-52-43-52-78v-105l-156 163c-24 24-60 32-92 19-31-13-52-43-52-77v-670c0-35 21-65 52-78 10-4 21-6 32-6 22 0 43 9 60 26l156 163v-106c0-34 20-64 52-77 10-5 21-7 31-7 22 0 44 9 60 26l322 336c31 32 31 83 0 115v1z m-682-393v670l322-335-322-335z m300 0v192l82 85c31 33 31 83 0 116l-82 85v192l322-336-322-334z" horiz-adv-x="1000" />

<glyph glyph-name="mds_ic_pdf_file" unicode="&#xe895;" d="M417 403h41c12 0 22 4 30 12 8 8 12 18 12 29v42c0 12-4 22-12 30-8 8-18 12-30 12h-62c-6 0-11-2-15-7-4-4-6-9-6-14v-167c0-5 2-10 6-14 4-5 9-7 15-7 5 0 10 2 14 7 5 4 7 9 7 14v63z m0 41v42h41v-42h-41z m208-125c12 0 22 4 30 12 8 8 12 18 12 30v125c0 12-4 22-12 30-8 8-18 12-30 12h-62c-6 0-11-2-15-7-4-4-6-9-6-14v-167c0-5 2-10 6-14 4-5 9-7 15-7h62z m-42 42v125h42v-125h-42z m167 42h21c5 0 10 2 14 6 5 4 7 9 7 15 0 5-2 10-7 14-4 4-9 6-14 6h-21v42h21c5 0 10 2 14 6 5 4 7 9 7 15 0 5-2 10-7 14-4 5-9 7-14 7h-42c-5 0-10-2-14-7-5-4-7-9-7-14v-167c0-5 2-10 7-14 4-5 9-7 14-7 6 0 11 2 15 7 4 4 6 9 6 14v63z m-417-313c-23 0-42 8-58 25-17 16-25 36-25 59v500c0 22 8 42 25 58 16 17 35 25 58 25h500c23 0 43-8 59-25 17-16 25-36 25-58v-500c0-23-8-43-25-59-16-17-36-25-59-25h-500z m-166-167c-23 0-43 9-59 25-16 16-25 36-25 59v542c0 11 4 21 12 29 8 8 18 12 30 12 12 0 22-4 30-12 8-8 12-18 12-29v-542h541c12 0 22-4 30-12 8-8 12-18 12-30 0-12-4-22-12-30-8-8-18-12-30-12h-541z" horiz-adv-x="1000" />

<glyph glyph-name="mds_ic_pdf_file_outline" unicode="&#xe896;" d="M432 403h41c12 0 22 4 30 12 8 8 12 18 12 29v42c0 12-4 22-12 30-8 8-18 12-30 12h-62c-6 0-11-2-15-7-4-4-6-9-6-14v-167c0-5 2-10 6-14 4-5 9-7 15-7 5 0 10 2 14 7 5 4 7 9 7 14v63z m0 41v42h41v-42h-41z m208-125c12 0 22 4 30 12 8 8 12 18 12 30v125c0 12-4 22-12 30-8 8-18 12-30 12h-62c-6 0-11-2-15-7-4-4-6-9-6-14v-167c0-5 2-10 6-14 4-5 9-7 15-7h62z m-42 42v125h42v-125h-42z m167 42h21c5 0 10 2 14 6 5 4 7 9 7 15 0 5-2 10-7 14-4 4-9 6-14 6h-21v42h21c5 0 10 2 14 6 5 4 7 9 7 15 0 5-2 10-7 14-4 5-9 7-14 7h-42c-5 0-10-2-14-7-5-4-7-9-7-14v-167c0-5 2-10 7-14 4-5 9-7 14-7 6 0 11 2 15 7 4 4 6 9 6 14v63z m-417-313c-23 0-42 8-59 25-16 16-24 36-24 59v500c0 22 8 42 24 58 17 17 36 25 59 25h500c23 0 43-8 59-25 17-16 25-36 25-58v-500c0-23-8-43-25-59-16-17-36-25-59-25h-500z m0 84h500v500h-500v-500z m-166-251c-23 0-43 9-59 25-16 16-25 36-25 59v542c0 11 4 21 12 29 8 8 18 12 30 12 12 0 22-4 30-12 8-8 12-18 12-29v-542h541c12 0 22-4 30-12 8-8 12-18 12-30 0-12-4-22-12-30-8-8-18-12-30-12h-541z" horiz-adv-x="1000" />

<glyph glyph-name="mds_ic_person" unicode="&#xe897;" d="M500 359c-50 0-92 16-123 47-32 32-47 73-47 123 0 51 15 92 47 123 31 32 72 48 123 48 50 0 92-16 123-48 32-31 48-72 48-123 0-50-16-91-48-123-31-31-72-47-123-47z m-351-293v34c0 30 7 55 22 76 14 21 33 37 56 47 48 23 94 39 139 50 44 10 89 16 134 16 45 0 90-6 134-17 44-11 90-27 138-49 24-10 43-26 58-47 14-21 21-46 21-76v-34c0-23-8-42-23-57-16-16-35-24-58-24h-540c-23 0-42 8-57 24-16 15-24 34-24 57z" horiz-adv-x="1000" />

</font>
</defs>
</svg>
